/* XPM */
static char *_f6f6c4954dd491fc68e789848608755Ni7FK7Vg0bXaLmqe[] = {
/* columns rows colors chars-per-pixel */
"64 64 243 2 ",
"   c #1E2D0A",
".  c #29380C",
"X  c #2B3716",
"o  c #2D3816",
"O  c #313C27",
"+  c #364712",
"@  c #384916",
"#  c #3B4428",
"$  c #3E5023",
"%  c #434E1A",
"&  c #4A7516",
"*  c #7C731E",
"=  c #495626",
"-  c #4A5331",
";  c #545E37",
":  c #586228",
">  c #5C653A",
",  c #6F742D",
"<  c #636B3C",
"1  c #545C42",
"2  c #5D6546",
"3  c #646A46",
"4  c #6B734A",
"5  c #7A7B48",
"6  c #6B7151",
"7  c #777A58",
"8  c #7C7E62",
"9  c #835E34",
"0  c #BE4623",
"q  c #BF4925",
"w  c #BF4E2B",
"e  c #BE542E",
"r  c #AF5B31",
"t  c #BA5A34",
"y  c #94762C",
"u  c #B96437",
"i  c #B37130",
"p  c #C04B27",
"a  c #C04F2C",
"s  c #C0502E",
"d  c #D65227",
"f  c #DB5327",
"g  c #D7542A",
"h  c #DB5529",
"j  c #D55A2E",
"k  c #DC582D",
"l  c #C15433",
"z  c #C55B37",
"x  c #D45C30",
"c  c #DC5C32",
"v  c #C86937",
"b  c #D16C31",
"n  c #D76639",
"m  c #DC653B",
"M  c #837C51",
"N  c #B8734B",
"B  c #C66844",
"V  c #DF6740",
"C  c #DC6B43",
"Z  c #D96C47",
"A  c #CA774D",
"S  c #D97649",
"D  c #C77654",
"F  c #DC7452",
"G  c #DC7B57",
"H  c #E1724D",
"J  c #E27552",
"K  c #E37A57",
"L  c #E37A58",
"P  c #DC7F61",
"I  c #4A870B",
"U  c #598616",
"Y  c #668617",
"T  c #75861D",
"R  c #5B872A",
"E  c #788A2E",
"W  c #79864B",
"Q  c #7D845A",
"!  c #7C8769",
"~  c #86821D",
"^  c #848A2B",
"/  c #878635",
"(  c #948B32",
")  c #A88835",
"_  c #8C9649",
"`  c #969848",
"'  c #8A8C55",
"]  c #84875A",
"[  c #979858",
"{  c #B98958",
"}  c #AC9152",
"|  c #92AA56",
" . c #A6A958",
".. c #B1A95B",
"X. c #878966",
"o. c #9A8B65",
"O. c #889565",
"+. c #989868",
"@. c #8C8C74",
"#. c #8F9376",
"$. c #959678",
"%. c #9A9C7C",
"&. c #A59967",
"*. c #B2936A",
"=. c #A69C76",
"-. c #9BA563",
";. c #9BA378",
":. c #A7A76A",
">. c #B3B36F",
",. c #A7A774",
"<. c #A4A67B",
"1. c #ABAB7C",
"2. c #ADB179",
"3. c #D68F4D",
"4. c #CA8657",
"5. c #D9865B",
"6. c #E2825D",
"7. c #D6B65B",
"8. c #C88B65",
"9. c #DA8766",
"0. c #C6976B",
"q. c #D49569",
"w. c #DB8E73",
"e. c #DC9677",
"r. c #E28464",
"t. c #E38A65",
"y. c #E0876A",
"u. c #E1886B",
"i. c #E4906C",
"p. c #E78E71",
"a. c #E59274",
"s. c #E4957A",
"d. c #E5987C",
"f. c #D1A975",
"g. c #E6A47A",
"h. c #CFCF55",
"j. c #DDCE67",
"k. c #D9E966",
"l. c #9B9685",
"z. c #A19C85",
"x. c #B49981",
"c. c #9DA18F",
"v. c #A8A788",
"b. c #B6AA86",
"n. c #ACB488",
"m. c #B6B688",
"M. c #A9A794",
"N. c #B3AC94",
"B. c #ABB293",
"V. c #B7B696",
"C. c #B4B49A",
"Z. c #BBBA9B",
"A. c #BCBBA4",
"S. c #B9B9A9",
"D. c #B7B8B0",
"F. c #CC9D85",
"G. c #DC9D85",
"H. c #E59D84",
"J. c #D9A58B",
"K. c #CDB38B",
"L. c #C6AD95",
"P. c #D7AA97",
"I. c #C1BA99",
"U. c #D6B39B",
"Y. c #E7A885",
"T. c #E4B48A",
"R. c #E3A993",
"E. c #E6BB96",
"W. c #C2BDA2",
"Q. c #C6BBA9",
"!. c #D9B6A6",
"~. c #D6B8AE",
"^. c #C2BFB3",
"/. c #E3BAA8",
"(. c #EABFB0",
"). c #B5C290",
"_. c #BEC1A5",
"`. c #BEC5B5",
"'. c #C7C78C",
"]. c #C6C595",
"[. c #D2C994",
"{. c #D6D49C",
"}. c #E2D59E",
"|. c #C3C4A5",
" X c #CACAA7",
".X c #C4C3AC",
"XX c #CAC4AC",
"oX c #D4C9A4",
"OX c #D6D5A8",
"+X c #C4C3B3",
"@X c #CAC5B3",
"#X c #CDCBB4",
"$X c #C5C6B8",
"%X c #CCC6BA",
"&X c #CCCBBC",
"*X c #D5C8B5",
"=X c #D2CCBC",
"-X c #CCD1B5",
";X c #D4D3B3",
":X c #D3D3BC",
">X c #DAD7BA",
",X c #DCDBBD",
"<X c #E9CEAC",
"1X c #EBD7B7",
"2X c #DFE0A8",
"3X c #E9E8A9",
"4X c #EFE7B4",
"5X c #F6F6B8",
"6X c #CAC7C5",
"7X c #CDCCC3",
"8X c #D2CDC3",
"9X c #D6CDC6",
"0X c #CED1C5",
"qX c #D4D2C4",
"wX c #DAD4C4",
"eX c #DBDAC5",
"rX c #D5D4CB",
"tX c #DAD5CB",
"yX c #D6D8C8",
"uX c #DCDACC",
"iX c #DAD6D4",
"pX c #DCDBD3",
"aX c #DADBD7",
"sX c #E5D9C4",
"dX c #E1DDCC",
"fX c #E2DDD4",
"gX c #E8DAD5",
"hX c #E2DDD9",
"jX c #DFE1D4",
"kX c #DEE1DA",
"lX c #E3E1CC",
"zX c #EBE9C8",
"xX c #F5F3CE",
"cX c #E4E3D4",
"vX c #E9E8D5",
"bX c #E4E3DC",
"nX c #E9E6DC",
"mX c #EBEADC",
"MX c #E5E4E2",
"NX c #EAEAE6",
"BX c #ECEAE4",
"VX c #F0EEE6",
"CX c #F6F7E7",
/* pixels */
"s s s s s s s s s s a 0 0 a s s s s s s s s s l s l l l l l t l l l l l l l l l l s s a a s s s s s a 0 0 w s s s s s s s s s s ",
"y.y.y.y.y.y.y.y.u.u.P w w P y.y.y.y.y.y.y.u.p.w.e.e.G.J.P.P.U.!.!.!.U.P.J.G.G.e.w.p.u.u.y.y.y.y.y.u.9.a w 9.9.8.w.u.y.y.y.y.y.y.",
"p.p.p.p.p.p.p.p.p.p.r.p w y.p.p.p.p.p.p.a.d.H.R.!.U.L.Q.XX^.%X&X8XuX8X=X*X*X~./.R.H.d.s.p.p.p.p.a.e.q.t r } } } q.a.p.p.p.p.p.p.",
"L L L L L L L 6.L L F p q F L L K L L r.u.s.J.!.*XQ.z.v.A.^.+X=XrXpXrX&X=XwX9X~.!.G.w.y.6.L L L 5.{ / y * ^ } 4.5.L L L L L L L ",
"H H H H H H 5.7.5.H Z q q Z H H H J 6.w.J.U.oX*XpXqXS.A.Q.+X@X%X7X8X7XS.S.qXtXqX9X!.d.w.u.L L 5.4./ Y & T ( { G J H H H H H H H ",
"k c k k k k b h.3.m k q q j k c m Z S w.~.8XtXiXaXrX&X&X$X$X^.+X^.+X7X+XS.$X&X&X&X*X!.P.J.w.P 9.{ , U Y ^ } n c k k k k k c k k ",
"k V k f f f n j.j.3.j s z j f c Z N { F.8X0XrXiXiXiXpXpXrXrX7X7X7X7XrX7X+XA.B.;.;.|.@X%XXXQ.F.e.*., Y ^ i n k f f f f f k V k f ",
"f k f f f f m 7.k.j.n z v c c m F e.L.Q.8X7XqXtXaXbXkXaXMXaXiXrX7XrXpXpXqX+XC.;.-. X$X$X&X.XC.U.L.W E / e h f m k f f f f k f f ",
"f f f f k f k 3.j.j.S 3.4.m m Z 5.e.*X8XrX%X%XrXiXpXpXpXbXbXbXrX%X#XqXpXfXqX=X.X#XjXfXtXeXqX&X&XQ.=.*.N w d f k f f k f f f f f ",
"f f f k V k f c 3.h.3.q.f.F m S ..>.|.+XqX.XZ.&X0XrXrXqXpXBXBXtXW.m.].tXfXcXfXbXnXBXVXbXcXjXjXyX!.J.w.l q d f f f k C c c f f f ",
"f f f f k f f n 7.h.h.'.U.e.9.q...2.@X$X#X2.-.W.7X&XW.,.m.lXVXpXZ.[ ,.wXfXcXcXMXNXnXBXnXnXnXbXdX/.R.s.z q g f k n b v i i k f f ",
"f k f f f f k F f.3.f.;X*X/./.sX;X:XpXrX_.` ^ :.+X%X1., _ ;XbX$XN.=.m.XXqXbXbXcXbXnXnXBXBXNXnXfX9X/.P.D w x b b i ( T T ) j f f ",
"k V k f f f f c m S e.hXMXnXcXbXpXaXjXtXV.E T -..XqXZ.+.v.uXhX^.M.z.N.C.^.bXBXcX>X:XfXBXNXNXcXqXqX9X9XF.N i ) ( ~ Y Y T y C k f ",
"f k f f f f f f m 7.{.MXCXVXnXpXiXpXbXtX.XO.' V.qXrX=X&XtXfXpXrX&X.X%X%X%XiXMXcXm. .].vXNXVXyXm. XdXhX#X_ Y U U U Y ~ i x k f f ",
"d d d d d d d g n q.T.sXBXBXbXrX8XqXpXpXrXA.B.$XjXcXtXpXpXpXqXqXqXqXpXpXqX&XhXnX'. .'.vXVXVXyX2.m.eXfX&XO.& I I U ( v j f d d f ",
"0 0 0 0 0 0 0 0 q e B P.hXBXcXqXZ.n.:XfXrX^.A.&XcXNXMXcXtXpXrX+X+X0XaXfX#X#XyXdXwX;X>XbXBXnXfX XoXuXpX`.6 & I I Y r e q 0 0 0 0 ",
"w w w w w w w w w s B ~.nXBXnXeX Xn.:XfXrXS.<.,.qXNXMXpX:XtXtXV.<.+XtXwXXXZ.n.1.V.W.W.@XtXpXbXhXfXaXiX$X! & I Y y u l w w w w w ",
"u.u.u.u.u.u.u.u.u.p.R.gXmXmXVXBXpXtXfXnXhX.X+.,.:XnXtX&X=XdXfX|.n.@X0X%XC.+.^ ^ [ V.|.@X7XrXnXbXbXaXS.M.;.R I T i 9.u.u.u.u.u.u.",
"p.p.p.p.p.p.p.p.a.H.(.gXoX>.eXNXnXfX:X>XvXyX8XtXuXpXrX=XyXcXfXtXrX&X$X$X+XZ.-._ :. XwXqXtXpXjXiXaXiXS.M.B.| E y t y.p.p.p.p.p.p.",
"L L L L L L K L 9.H.1XsX..^ ].NXnX,X .` OXbXpXqXqXqXyXtXtX=X=XtXpXqXXX@X8XqX:X|. XqXwXtXfXdXuXuXpXrX6X6X6X)._ r a F L L L L L L ",
"H H H H H H H F 9.J.gXlX'.:.;XMXBX,X .( OXnXqX#XyXfXlXuX#Xm.,.I.uXfXXXZ.XXuXBXpXqXqX-X#X>XuXcXjXpXtXiXaXD.O.' r p Z H H H H H H ",
"k k c k k k k c m 9.sXnXdXlXvXnXbXlXOXOXcXbXqX=XuXcXcXfX#X+., [ eXfXXX:.:.>XnXrX7XtXOX:.].dXbXbXkXpXaX`.Q E ( u p j k k k c k k ",
"f k V k h h f f k K <XhXcXOX,XcXbXcXvXmXbXbXdXeXuX>XlXMX9X,./ :.yXuX9XI.Z.qXbXpXrXuX>X>.].cXbXMXbXiX`.O.R E ) e q d f f k V k f ",
"f f k f h f f f c 9./.<X[. .].qXiXcXcXnXnXcXcXnXmX;XeXnXwXW.Z.%XqXqXwX8XqXqXiXrXqXqXtX>X>XfXpXcXaX0XB.W U ( v p 0 d h f f k f f ",
"f f f f f f f k C w.d.R.oX). XqXpXpXuXfXnXbXbXnXnXnXfXnXeX:X%X9X=X%X@XW..XtXbXtXrXqX].W.@XyXjXkXtX&XA.O., i x 0 0 d f f f f f f ",
"f f f f f f k C C G s./.1XeXqXqXuX;Xm.m.eXNXBXbXdX;X;XmXbXqXQ.I.@X%XN.[ [ =XNXpXD.=X:.&.XXfXbXbX8X=XQ.o.: y j 0 0 d f k f f f f ",
"f f f f f f f k k m G f.U.wXqXtXcX].^ ^ OXBXBXnX;X . .sXVX:X=.<.#X8Xb., / XXNXMXA.$X#X].>XhXbXrX&X*XJ.N 9 u j q 0 d k V k f f f ",
"f f f f f f f f f c 5.0.5.K.V.eXcX X` ` ;XBXBXbX,X>.>.dXbX8XA.+XqXrX#X1.m.eXBXkXD.`.&X:XbXbXjXtX*XJ.G F z f f q 0 d f k f f k f ",
"f f k f f f f f f c 5.q.S *.1.-XuXyX XOXnXBXcXcXcXeXyXpXqX8XiXiXrXyXfXyXrXkXpX&XA.D.B.C.0XeX-X*XJ.5.m c f f d 0 0 d f f f k V k ",
"f k V k f f f f f f m C n { _ ,.-XtXcXnXVXnXcXmXBXbXpXrXqXqXuXpXrX=XQ.A.0XaXqXv.o.N.S.C.v..X!.J.9.m k f h h d 0 0 d f f f f k f ",
"d g k g d d g d d d g f n } * E -..XbXnXnXnXcXdXlXtXqXrX#Xm.I.dXqXN.5 M .XiXrX%.] N.^._.n.b.9.F m g d d f f d 0 0 d d d d d d d ",
"0 0 0 0 0 0 0 0 0 q q 0 e { / / } L.gXbXbXcXOX>.].$X$X8XV./ ` >XrXv.: , I.hXpX^.C.D.D.n.2.2.N a q 0 0 0 0 0 0 0 0 0 0 0 0 0 0 0 ",
"w w w w w w w w w 0 0 w w B 8.8.B D P.gXMXhXOX>.2.M.D.8XI.`  .eXbX.X<.v.%XpXkXiX7X$XS.,.| | u a w w w w w w w w w w w w w w w w ",
"u.u.u.u.u.u.u.u.P w w P u.u.s.a.u.u.R.gXnXbXcX,X.XC.$XrXtX*X,XbXaXrX&X9XiXtXqXC.c.M.J.f.:.-.q.y.u.u.u.u.u.u.u.u.u.u.u.u.u.u.u.u.",
"p.p.p.p.p.p.p.a.u.w w y.p.p.p.a.a.H.<XzXmXnXpXA.M.;.v.7XiXbXaX7X&X^.6XiXyX_.n.7 - 3 0.d.f.f.a.p.p.p.p.p.p.p.p.p.p.p.p.p.p.p.p.p.",
"L L L L L K L p.u.w q F L L L r.e.E.zXxXCXCXlXB.v.<.C.D.c.&X:XA.m.n.V._.B.] ' +.> M 5.r.6.5.L L L L L L L L L L L L L L L L L L ",
"H H H H H J K p.u.w q Z H H J w.U.,XzXlXmXCXmXA.@.O.n.X.1 X.+.,.X.<.m.Q 3 > 5 +.M D F H H H H H H H H H H H H H H H H H H H H H ",
"k k k k c H K p.u.w 0 g k k c F U.eXvXvXeXcXmX&XC.n.<.Q 6 - # = # 3 %.] < ] Q ] o.B c k k k k k k k k k k k k k k k k k k k k k ",
"f f f f k H K p.u.w 0 d f f f c 9.<XdXvXzXzX,X&XeX#XW.Z.v.; o X O 4 +.Q 6 %.%.@.o.n f k f h f f f f k f f f f f k f f f f f k f ",
"f f k V c H K p.u.w 0 d f f f k 6.Y.1X1XzXzX,X:XeX#XA.Z.V.#.6 1 6 v.Z.%.$.z.v.M.x.n k C k h h f f k V k f f f k V k f f f k V k ",
"f k f k k H K p.u.w 0 d f f f f m t.E.T.U.U.oX#X:X-X#X.XC.W.|._. X:X:XA.v.%.#.@.=.n h k f f k f f f k f f k f f k f f k f f k f ",
"k V k f k H K p.u.w 0 d f f k k c Z t.G F G J.#XlXvX:X%.@.XXzXzXzXvXlX>X|.V.v.#.o.n h h f k V k f f f f k C k f f f k V k f f f ",
"f k f k k H K p.u.w 0 d f k V k k c c c c Z P.lXxX,X%.4 7 B.eX,X-X_.Z.Z. X;X|.V.b.Z f h f f k f f f k f f k f f f f f k f f k f ",
"f f k V c H K p.u.w 0 d f f k f k f f f c G U.zX,X1.] Q 7 X.B.A.M.6 > ] v.A.N.].oX9.c k f f f f f k C k f f f f k f f f f k V k ",
"f f f k k H K p.u.w 0 d f f f k V k f k Z w.e.1X2X'.m.+.4 3 #.M.v.6 = < 7 7 <.{.OXJ.Z C k f f f f f k f f f f k V k f f f f k f ",
"f f f f k H L p.u.w 0 d f f f f k f f c Z F 6.}.4X5X3X:.: = X.l.l.8 - = = @ 5 '.{.T.Z k f f f f f f f f f f f f k f f f f f f f ",
"d d d d j Z F r.9.w 0 d d d d d d g f c Z V F 3X5X5X4X:.% @ 7 l.l.@.- + @ % 5 '.3XE.C g d d d g d d d d d d d d d d d d d d d d ",
"0 0 0 0 0 q q w w 0 0 0 0 0 0 0 0 q p l z l A 3X5X5X3X-.@ + 6 $.$.$.6 $ $ % 5 [.3XT.v 0 0 0 0 0 0 0 0 0 0 0 0 0 0 0 0 0 0 0 0 0 ",
"w w w w w w w w w a a a w w w w a l z z z l D 4X5X5X3X[ + + > @.l.$.@.> = = ' {.4XT.B a w w w w w w w w w w a w 0 0 w a w w w w ",
"u.u.u.u.u.u.u.u.u.u.u.u.u.u.u.u.u.u.p.a.p.p.Y.4X5X5X3XW @ + @ 7 l.l.$.! > : [ }.4X<Xs.u.u.u.u.u.u.u.u.u.u.u.u.9.w w P u.u.u.u.u.",
"p.p.p.p.p.p.p.p.p.p.p.p.p.p.p.p.p.a.s.s.s.a.Y.4XxX5X'.< @ @ . - @.l.l.l.7 < :.{.[.E.d.p.p.p.p.p.p.p.p.p.p.p.p.r.w w r.p.p.p.p.p.",
"L L L L L L L L L L L L L L L L L L r.r.r.L i.}.OX3X,.: $ @ . o 7 $.l.l.#.5 +.<.,.e.r.L L L L L L L L L L L L F q q F L L L L L ",
"H H H H H H H H H H H H H H H H H H K K J J t.K.n.2.] = @ + . . ; X.l.z.z.#.X.X.=.w.K H H H H H H H H H H H H Z q q Z H H H H H ",
"k k k k c k k k k k k k k k k k k k c c c c r.K.+.] < = @ + . . o 3 l.v.v.v.%.+.0.G m k k c k k k k k k k k k k q 0 j k k k k k ",
"f f f k V k f f f f f k f f f f f f f k f k t.K.+.4 = = @ . . . . # X.v.N.V.b.1.0.S c f k V k f f f f f k f f f 0 0 d f f f k f ",
"f f f f k f f f f f k V k f f f f f k V k c a.[.O.< = = % . . . . . ; %.Z.I.K.f.0.Z k f f k f f f f f k V k f f 0 0 d f f k V k ",
"f f f f f f f k f f f k f f f k f f f k f c g.oX$.7 > > = + . . . . o 3 B.W.L.f.8.C k k f f f f k f f f k f k h 0 0 g k f f k f ",
"f k f f f f k V k f f f f f k C k f f f f m Y.oXn.#.Q < : @ o     X o - ! l.+.{ 4.C c V k f f k V k f f f k V k 0 0 j V k f f f ",
"k V k f f f f k f f f f f f f k f f k f f m Y.[.m.%.8 4 3 ; # X X O # - 2 7 o.{ A C k k f f f f k f f f f f k h 0 0 g k f f f f ",
"f k f k f f f f f f f k f f f f f k C k f m g.[.].<.X.X.X.7 1 # O - 1 2 3 M *.{ 4.n k h f k f f f f f f k f f f 0 0 d f f f k f ",
"f f k V k f f f f f k V k f f f f f k f f m T.2XOX'.1.<.;.+.] 3 - 3 X.X.] o.&.{ 4.m f h k V k f f f f k V k f f 0 0 d f f k V k ",
"f f f k f f f f f f f k f f f f f f f f f m E.4XxXOX'.m.1.2.,.] 7 X.o.+.+.&.} A C c f f f k f f f f f f k f f h 0 0 d f f f k f ",
"d d d d d d d d d d d g d d d d d d d d d m T.xXCXzXOXm.2.2.,.&.=.&.+.+.&.{ A n j g d d d d d d d d d d d d d d 0 0 d d d d d d ",
"0 0 0 0 0 0 0 0 0 0 0 0 0 0 0 0 0 0 0 0 0 z J.xXCXCXxX[.>.:.,.:.:.&.+.o.{ N s p q 0 0 0 0 0 0 0 0 0 0 0 0 0 0 0 0 0 0 0 0 0 0 0 "
};
