/* XPM */
static char *d5017f1891d34351fa5169528a47fa9bRhaPmran9aVeRTar[] = {
/* columns rows colors chars-per-pixel */
"64 64 160 2 ",
"   c #7C635F",
".  c #5F676F",
"X  c #5D6770",
"o  c #5E6971",
"O  c #746363",
"+  c #796461",
"@  c #7B6D6C",
"#  c #646D76",
"$  c #69737C",
"%  c #7C7070",
"&  c #BC4623",
"*  c #BD4926",
"=  c #BC4B2A",
"-  c #AB4F34",
";  c #B04D30",
":  c #AC573E",
">  c #B55336",
",  c #BC5535",
"<  c #BF5939",
"1  c #C34924",
"2  c #CE4F26",
"3  c #C24F2C",
"4  c #CA512A",
"5  c #CD542E",
"6  c #CD5E2A",
"7  c #D35126",
"8  c #DB5327",
"9  c #D4542B",
"0  c #DB5529",
"q  c #D5582F",
"w  c #DC582D",
"e  c #C45634",
"r  c #C65835",
"t  c #CF5A35",
"y  c #C55A39",
"u  c #D45932",
"i  c #DD5D33",
"p  c #D55E38",
"a  c #CD612D",
"s  c #CE6532",
"d  c #CE693A",
"f  c #DE6037",
"g  c #875A50",
"h  c #AE5A42",
"j  c #B45C43",
"k  c #8E6054",
"l  c #BE6D55",
"z  c #BF755F",
"x  c #876D69",
"c  c #8C726D",
"v  c #9B7167",
"b  c #93756E",
"n  c #817576",
"m  c #8D7672",
"M  c #947771",
"N  c #947C77",
"B  c #C05F40",
"V  c #CA6648",
"C  c #D86641",
"Z  c #D16B4A",
"A  c #DA704E",
"S  c #C46D52",
"D  c #D26F50",
"F  c #C6775E",
"G  c #C7785F",
"H  c #D57454",
"J  c #D47A5E",
"K  c #DC7C5C",
"L  c #E06F4A",
"P  c #E1704C",
"I  c #E17552",
"U  c #E37C5A",
"Y  c #C47A64",
"T  c #C57E69",
"R  c #D77E62",
"E  c #DC7F62",
"W  c #DF863A",
"Q  c #E8953B",
"!  c #E9983F",
"~  c #95807D",
"^  c #948A79",
"/  c #DE914C",
"(  c #DD825F",
")  c #D59A57",
"_  c #E99C44",
"`  c #D9A351",
"'  c #EAA24D",
"]  c #F4AC42",
"[  c #F4AF48",
"{  c #F5B047",
"}  c #F4B049",
"|  c #E7A753",
" . c #EFAF5F",
".. c #F3BA56",
"X. c #F3BE5D",
"o. c #C98569",
"O. c #D68166",
"+. c #DD8161",
"@. c #D5866E",
"#. c #D78A72",
"$. c #E58A6C",
"%. c #ECAD60",
"&. c #EFB263",
"*. c #F4BF61",
"=. c #F3C05F",
"-. c #F3C162",
";. c #F4C369",
":. c #F6C673",
">. c #F5C975",
",. c #F5CB7B",
"<. c #737C84",
"1. c #798087",
"2. c #798189",
"3. c #8E8080",
"4. c #80898F",
"5. c #928482",
"6. c #868D94",
"7. c #8B9197",
"8. c #8E959C",
"9. c #90969D",
"0. c #91989E",
"q. c #BDA299",
"w. c #979DA3",
"e. c #999EA4",
"r. c #ACB0B2",
"t. c #B3B7BA",
"y. c #B6BABC",
"u. c #BBBDBE",
"i. c #CDB2AA",
"p. c #D1B3A9",
"a. c #D2BAB3",
"s. c #D3BEB8",
"d. c #F6CE83",
"f. c #F7D99D",
"g. c #F8D99F",
"h. c #F8DAA0",
"j. c #FADBAC",
"k. c #FAE2B6",
"l. c #FAE5BE",
"z. c #BABDC0",
"x. c #BEC0C2",
"c. c #C4C7C9",
"v. c #C6C8CA",
"b. c #CBCCCD",
"n. c #D1CFCF",
"m. c #D1D0CF",
"M. c #CDCFD0",
"N. c #CFD0D2",
"B. c #D2D2D2",
"V. c #DCDCDC",
"C. c #DFE0DF",
"Z. c #FAE6C0",
"A. c #FBEACB",
"S. c #FCF0D8",
"D. c #E1E1E1",
"F. c #FDF4E2",
"G. c #FDF5E5",
"H. c #FDF7EA",
"J. c #FEFBF4",
"K. c #FEFCF7",
/* pixels */
"y y y y y y y y y y e * * e y y y y y y y y y y y y y y y y y y y y y y y y y y y y y y y y y y y y e * * e y y y y y y y y y y ",
"E E E E E E E E E E H e e H ( +.+.+.+.+.+.+.+.+.+.+.+.+.+.+.+.+.+.+.+.+.+.+.+.+.+.+.+.+.+.+.+.+.+.+.H r e H E E E E E E E E E E ",
"$.$.$.$.$.$.$.$.$.$.K s W '  .&.&.&.&.&.&.&.&.&.&.&.&.&.&.&.&.&.&.&.&.&.&.&.&.&.&.&.&.&.&.&.&.&.&.&.%./ d K $.$.$.$.$.$.$.$.$.$.",
"U U U U U U U U U U A s Q } ..X.X.X.=.-.-.-.-.-.X.X.-.-.X.X.X.-.-.X.X.-.-.X.X.-.-.-.-.-.-.-.-.X.X.=.X.| d A U U U U U U U U U U ",
"L L L L L L L L L L C s Q } X.=.=.-.>.d.d.d.d.,.-.-.,.,.-.-.-.,.,.-.-.,.,.-.-.,.d.d.d.d.d.d.,.-.=.=.X.| d C L L L L L L L L L L ",
"i f i i i i i i f i q a Q } X.=.=.>.k.S.S.S.S.l.,.,.l.l.,.-.,.l.l.,.,.l.l.,.,.l.S.S.S.S.S.S.l.,.-.=.X.| s q i i i i i i i f i i ",
"w i w 0 0 0 0 w i w 7 a Q } X.=.-.d.S.J.F.S.S.l.,.d.S.S.d.-.d.S.S.d.d.S.S.d.,.l.S.F.J.J.F.S.l.,.-.=.X.| s 7 0 w 0 0 0 0 w i w 0 ",
"0 w 0 0 0 0 0 0 w 0 7 a Q ] X.=.-.d.S.F.h.d.d.,.;.d.S.G.f.>.f.G.S.d.d.S.S.d.;.,.d.g.F.F.g.d.,.-.=.=.X.| s 7 w i w 0 0 0 0 w 0 0 ",
"0 0 0 0 w 0 0 0 0 0 7 6 Q ] ..X.-.d.S.F.h.d.d.,.;.>.l.H.S.Z.S.H.l.>.d.S.S.d.-.=.-.d.S.S.d.-.-.=.=.=.X.| s 7 0 w 0 0 w 0 0 0 0 0 ",
"0 0 0 w i w 0 0 0 0 7 6 Q ] ..X.-.d.S.J.F.S.S.l.,.-.d.A.J.K.J.A.d.-.d.S.S.d.-.=.-.d.S.S.d.-.=.=.=.=.X.| s 7 0 0 0 w i w 0 0 0 0 ",
"0 0 0 0 w 0 0 w 0 0 7 6 Q ] } X.-.d.S.J.F.S.S.l.,.-.d.A.J.K.J.A.d.-.d.S.S.d.-.=.-.d.S.S.d.-.=.=.=.=.X.| s 7 0 0 0 0 w 0 0 0 0 0 ",
"0 w 0 0 0 0 w i w 0 7 6 Q ] { ..=.d.S.F.h.d.d.,.;.>.l.H.S.l.S.H.l.>.d.S.S.d.-.=.-.d.S.S.d.-.=.=.=.=.X.| s 9 w 0 0 0 0 0 0 w 0 0 ",
"w i w 0 0 0 0 w 0 0 7 6 Q ] ] } X.d.S.F.h.d.d.,.;.d.S.G.f.>.f.G.S.d.d.S.S.d.-.=.-.d.S.S.d.-.=.=.=.=.X.| s 9 i w 0 0 0 0 w i w 0 ",
"0 w 0 0 0 0 0 0 0 0 7 6 Q ] ] ] } ,.S.J.F.S.S.l.,.d.S.S.d.-.d.S.S.d.d.S.S.d.-.=.-.d.S.S.d.-.=.=.=.=.X.| s 9 w 0 0 0 0 0 0 w 0 0 ",
"7 7 7 7 7 7 7 7 7 7 2 6 Q ] ] ] ] *.j.S.S.S.S.l.,.,.l.l.,.-.,.l.l.,.,.l.l.,.-.=.-.,.l.l.,.-.=.=.=.=.X.| s 2 7 7 7 7 7 7 7 7 7 7 ",
"1 1 1 1 1 1 1 1 1 1 1 6 Q ] ] ] ] ] X.;.:.,.,.:.*.*.:.:.*.X.*.:.:.*.*.:.:.*.......*.:.:.*.............' s 1 1 1 1 1 1 1 1 1 1 1 ",
"r r r r r r r e e e r d ! ] ] ] ] ] ] ] ] [ } } } } } } } } } } } } } } } } } } } } } } } } } } } } [ _ d r e = * e r r r r r r ",
"+.+.+.+.+.+.R Y Y T T o.) ` ` ` ` ` ` ` ` ` ` ` ` ` ` ` ` ` ` ` ` ` ` ` ` ` ` ` ` ` ` ` ` ` ` ` ` ` ` ) o.T z j j H +.+.+.+.+.+.",
"$.$.$.$.$.$.@.M n 3.5.5.^ ^ ^ ^ ^ ^ ^ ^ ^ ^ ^ ^ ^ ^ ^ ^ ^ ^ ^ ^ ^ ^ ^ ^ ^ ^ ^ ^ ^ ^ ^ ^ ^ ^ ^ ^ ^ ^ ^ ^ 5.5.3.m v R $.$.$.$.$.$.",
"U U U U U U G @ # <.2.2.2.2.2.2.2.2.2.2.2.2.2.2.2.2.2.2.2.2.2.2.2.2.2.2.2.2.2.2.2.2.2.2.2.2.2.2.2.2.2.2.2.2.2.1.m H U U U U U U ",
"L L L L L L S @ # <.2.2.2.2.2.2.2.2.2.2.2.2.2.2.2.2.2.2.2.2.2.2.2.2.2.2.2.2.2.2.2.2.2.2.2.2.2.2.2.2.2.2.2.2.2.2.m Z L L L L L L ",
"i i f i i i y + # <.2.6.7.8.8.9.8.8.8.8.8.8.8.8.8.8.8.8.8.8.8.7.7.8.8.8.8.8.8.8.8.8.8.8.8.8.8.8.8.9.9.8.7.2.2.2.c t i i i f i i ",
"0 w i w 0 0 y + # <.6.r.z.v.b.b.b.b.b.b.b.b.b.b.b.b.b.b.b.b.v.x.x.v.b.b.b.b.b.b.b.b.b.b.b.b.b.b.b.b.b.b.y.7.2.2.c 5 0 0 w i w 0 ",
"0 0 w 0 0 0 y + # <.7.u.B.V.D.D.D.D.D.D.D.D.D.D.D.D.D.D.D.D.V.B.B.V.D.D.D.D.D.D.D.D.D.D.D.D.D.D.D.D.D.C.b.8.2.2.c 5 8 0 0 w 0 0 ",
"0 0 0 0 0 0 y + # <.7.u.B.V.D.D.D.D.D.D.D.D.D.D.D.D.D.D.D.D.V.B.B.V.D.D.D.D.D.D.D.D.D.D.D.D.D.D.D.D.D.D.b.9.2.2.c 5 0 0 0 0 0 0 ",
"0 0 0 0 0 0 y + # <.7.u.B.V.D.D.D.D.D.D.D.D.D.D.D.D.D.D.D.D.V.B.B.V.D.D.D.D.D.D.D.D.D.D.D.D.D.D.D.D.D.D.b.9.2.2.c 5 0 w 0 0 0 0 ",
"0 0 0 0 0 0 y + # <.7.u.B.V.D.D.D.D.D.D.D.D.D.D.D.D.D.D.D.D.V.B.B.V.D.D.D.D.D.D.D.D.D.D.D.D.D.D.D.D.D.D.b.9.2.2.c 5 w i w 0 0 0 ",
"0 0 0 0 0 0 y + # <.7.u.B.V.D.D.D.D.D.D.D.D.D.D.D.D.D.D.D.D.V.B.B.V.D.D.D.D.D.D.D.D.D.D.D.D.D.D.D.D.D.D.b.9.2.2.c 5 0 w 0 0 w 0 ",
"0 0 w 0 0 0 < + # <.7.u.B.V.D.D.D.D.D.D.D.D.D.D.D.D.D.D.D.D.V.B.B.V.D.D.D.D.D.D.D.D.D.D.D.D.D.D.D.D.D.D.b.9.2.2.c 5 0 0 0 w i w ",
"0 w i w 0 0 < + # <.7.u.B.V.D.D.D.D.D.D.D.D.D.D.D.D.D.D.D.D.V.B.B.V.D.D.D.D.D.D.D.D.D.D.D.D.D.D.D.D.D.D.b.9.2.2.c 5 8 0 0 0 w 0 ",
"7 7 9 7 7 7 , + # <.7.u.B.V.D.D.D.D.D.D.D.D.D.D.D.D.D.D.D.D.V.B.B.V.D.D.D.D.D.D.D.D.D.D.D.D.D.D.D.D.D.D.b.8.2.2.c 4 7 7 7 7 7 7 ",
"1 1 1 1 1 1 - O # <.7.u.B.V.D.D.D.D.D.D.D.D.D.D.D.D.D.D.D.D.V.B.B.V.D.D.D.D.D.D.D.D.D.D.D.D.D.D.D.D.D.D.b.9.2.2.c = 1 1 1 1 1 1 ",
"e e e e e e h O # <.7.u.B.V.D.D.D.D.D.D.D.D.D.D.D.D.D.D.D.D.V.B.B.V.D.D.D.D.D.D.D.D.D.D.D.D.D.D.D.D.D.D.b.9.2.2.m < e e e e e e ",
"+.+.+.+.+.+.Y @ # <.7.u.B.V.D.D.D.D.D.D.D.D.D.D.D.D.D.D.D.D.V.B.B.V.D.D.D.D.D.D.D.D.D.D.D.D.D.D.D.D.D.D.b.9.2.2.~ O.+.+.+.+.+.+.",
"$.$.$.$.$.$.o.% # <.7.u.B.V.D.D.D.D.D.D.D.D.D.D.D.D.D.D.D.D.V.B.B.V.D.D.D.D.D.D.D.D.D.D.D.D.D.D.D.D.D.D.b.9.2.2.5.#.$.$.$.$.$.$.",
"U U U U U U Y % # <.7.u.B.V.D.D.D.D.D.D.D.D.D.D.V.M.N.V.D.D.V.B.B.V.D.D.V.M.N.V.D.D.D.D.D.D.D.D.D.D.D.D.b.9.2.2.~ K U U U U U U ",
"L L L L P I F % # <.7.u.B.V.D.D.D.D.D.D.D.D.D.V.t.0.w.z.V.D.V.B.B.V.D.V.t.0.w.z.V.D.D.D.D.D.D.D.D.D.D.D.b.9.2.2.N A L L L L L L ",
"i i i i f P F % # <.7.u.B.V.D.D.D.D.D.D.D.D.D.b.7.<.2.e.N.D.V.B.B.V.D.b.7.<.2.e.N.D.D.D.D.D.D.D.D.D.D.D.b.9.2.2.M p i i i i i i ",
"0 0 0 w i L F % # <.7.u.B.V.D.D.D.D.D.D.D.D.D.c.4.<.2.8.b.D.V.B.B.V.D.c.4.<.2.8.b.D.D.D.D.D.D.D.D.D.D.D.b.9.2.2.M u 0 0 0 0 w 0 ",
"0 0 w i f L F % # <.7.u.B.V.D.D.D.D.D.D.D.D.D.c.4.<.2.8.b.D.V.B.B.V.D.c.4.<.2.8.b.D.D.D.D.D.D.D.D.D.D.D.b.9.2.2.M u 0 0 0 w i w ",
"0 w w w i L F % # <.7.u.B.V.D.D.D.D.D.D.D.D.D.c.4.<.2.8.b.D.V.B.B.V.D.c.4.<.2.8.b.D.D.D.D.D.D.D.D.D.D.D.b.9.2.2.b u 0 w 0 0 w 0 ",
"w i w 0 i L F % # <.7.u.B.V.D.D.D.D.D.D.D.D.D.c.4.<.2.8.b.D.V.B.B.V.D.c.4.<.2.8.b.D.D.D.D.D.D.D.D.D.D.D.b.9.2.2.b q w i w 0 0 0 ",
"0 w w w i L F % # <.7.u.B.V.D.D.D.D.D.D.D.D.D.b.7.<.2.e.N.D.V.B.B.V.D.b.7.<.2.e.N.D.D.D.D.D.D.D.D.D.D.D.b.9.2.2.b 9 0 w 0 0 w 0 ",
"0 0 w i f L F % # <.7.u.B.V.D.D.D.D.D.D.D.D.D.V.t.0.w.z.V.D.V.B.B.V.D.V.t.0.w.z.V.D.D.D.D.D.D.D.D.D.D.D.b.9.2.2.M u 0 0 0 w i w ",
"0 0 0 w i L F % # <.7.u.B.V.D.D.D.D.D.D.D.D.D.D.V.M.N.V.D.D.V.B.B.V.D.D.V.M.N.V.D.D.D.D.D.D.D.D.D.D.D.D.b.9.2.2.M u 0 0 0 0 w 0 ",
"0 0 0 0 i L F @ # <.7.u.B.V.D.D.D.D.D.D.D.D.D.D.D.D.D.D.D.D.V.B.B.V.D.D.D.D.D.D.D.D.D.D.D.D.D.D.D.D.D.D.b.9.2.2.b u 0 0 0 0 0 0 ",
"7 7 7 7 9 C l @ # <.7.u.B.V.D.D.D.D.D.D.D.D.D.D.D.D.D.D.D.D.V.B.B.V.D.D.D.D.D.D.D.D.D.D.D.D.D.D.D.D.D.D.b.9.2.2.b 5 7 7 7 7 7 7 ",
"1 1 1 1 1 3 : O # <.7.u.b.V.D.D.D.D.D.D.D.D.D.D.D.D.D.D.D.D.V.B.B.V.D.D.D.D.D.D.D.D.D.D.D.D.D.D.D.D.D.D.b.9.2.2.c = 1 1 1 1 1 1 ",
"r r r r r r h O # <.7.u.b.B.V.D.D.D.D.D.D.D.D.D.D.D.D.D.D.D.V.B.B.V.D.D.D.D.D.D.D.D.D.D.D.D.D.D.D.D.D.D.b.9.2.2.c = e r r r r r ",
"+.+.+.+.+.+.Y @ # <.7.u.b.B.V.D.D.D.D.D.D.D.D.D.D.D.D.D.D.D.V.B.B.V.D.D.D.D.D.D.D.D.D.D.D.D.D.D.D.D.D.D.b.9.2.2.c , H E +.+.+.E ",
"$.$.$.$.$.$.o.% # <.7.u.b.B.V.V.D.D.D.D.D.D.D.D.D.D.D.D.D.D.V.B.B.V.D.D.D.D.D.D.D.D.D.D.D.D.D.D.D.D.D.D.b.9.2.2.c < K $.$.$.$.$.",
"U U U U U U Y @ # <.7.u.b.b.B.V.D.D.D.D.D.D.D.D.D.D.D.D.D.D.V.B.B.V.D.D.D.D.D.D.D.D.D.D.D.D.D.D.D.D.D.D.b.9.2.2.c , A U U U U U ",
"L L L L L L S @ # <.7.u.b.b.B.V.V.D.D.D.D.D.D.D.D.D.D.D.D.D.V.B.B.V.D.D.D.D.D.D.D.D.D.D.D.D.D.D.D.D.D.D.b.9.2.2.c , C L L L L L ",
"i i i i f i B + # <.7.u.b.b.b.B.V.D.D.D.D.D.D.D.D.D.D.D.D.D.V.B.B.V.D.D.D.D.D.D.D.D.D.D.D.D.D.D.D.D.D.D.b.9.2.2.c = 9 i i i i i ",
"0 0 0 w i w < + # <.7.u.b.b.b.m.B.V.D.D.D.D.D.D.D.D.D.D.D.D.V.B.B.V.D.D.D.D.D.D.D.D.D.D.D.D.D.D.D.D.D.D.b.9.2.2.c = 7 0 0 0 w 0 ",
"0 0 0 0 w 0 < + # <.7.u.b.b.b.b.b.B.V.D.D.D.D.D.D.D.D.D.D.D.V.B.B.V.D.D.D.D.D.D.D.D.D.D.D.D.D.D.D.D.D.D.b.9.2.2.c = 7 0 0 w i w ",
"0 0 0 0 0 0 < + # $ 7.u.b.b.b.b.b.b.B.V.V.D.D.D.D.D.D.D.D.D.V.B.B.V.D.D.D.D.D.D.D.D.D.D.D.D.D.D.D.D.D.D.b.9.2.2.c = 7 w 0 0 w 0 ",
"0 w 0 0 0 0 y + o # 6.u.b.b.b.b.b.b.b.B.V.V.V.D.D.D.D.D.D.D.V.B.B.V.D.D.D.D.D.D.D.D.D.D.D.D.D.D.D.D.D.D.b.9.2.2.c = 9 i w 0 0 0 ",
"w i w 0 0 0 < + o o 2.y.b.b.b.b.b.b.b.b.B.B.V.V.V.D.D.D.D.D.V.B.B.V.D.D.D.D.D.D.D.D.D.D.D.D.D.D.D.D.D.D.b.8.2.1.c = 7 w 0 0 0 0 ",
"0 w w w 0 0 < + X o <.t.b.b.b.b.b.b.b.b.b.b.B.B.B.V.V.V.V.V.V.B.B.V.V.V.V.V.V.V.V.V.V.V.V.V.V.V.V.V.V.V.c.7.<.<.x = 7 0 0 0 w 0 ",
"0 0 w i w 0 < + . o <.t.b.b.b.b.b.b.b.b.b.b.b.n.b.n.n.n.B.B.m.b.b.m.B.B.B.B.B.B.B.B.B.B.B.B.B.B.B.B.B.m.y.2.# #   = 7 0 0 w i w ",
"0 0 0 w 0 0 r k + + m q.p.p.p.p.p.p.p.p.p.p.a.a.s.a.i.i.i.p.p.p.p.p.p.p.p.p.p.p.p.p.p.p.p.p.p.p.p.p.p.p.q.m + + g * 7 0 0 0 w 0 ",
"7 7 7 7 7 7 4 , , , < V Z Z Z Z Z Z Z Z Z D J O.#.@.S V V Z Z Z Z Z Z Z Z Z Z Z Z Z Z Z Z Z Z Z Z Z Z Z V < , > ; * 2 7 7 7 7 7 ",
"1 1 1 1 1 1 1 1 1 1 1 1 1 1 1 1 1 1 1 1 1 1 3 e r e * & 1 1 1 1 1 1 1 1 1 1 1 1 1 1 1 1 1 1 1 1 1 1 1 1 1 1 1 1 & & 1 1 1 1 1 1 "
};
