/* XPM */
static char *b66d5c39ac924731e2ad6c0de7644e7c7Ok8VsjJIC6PX13x[] = {
/* columns rows colors chars-per-pixel */
"64 64 131 2 ",
"   c #C0502E",
".  c #BF4F2D",
"X  c #BB4624",
"o  c #BB4623",
"O  c #BF4E2D",
"+  c #E1876B",
"@  c #E1886B",
"#  c #DC8063",
"$  c #BE4D2A",
"%  c #BF4D2B",
"&  c #DC7F62",
"*  c #E78E71",
"=  c #E78F72",
"-  c #E18668",
";  c #BF4D2A",
":  c #BF4E2C",
">  c #E78E72",
",  c #E89276",
"<  c #E2896C",
"1  c #E37957",
"2  c #E37A58",
"3  c #DD7351",
"4  c #BF4B28",
"5  c #BE4A28",
"6  c #DD7251",
"7  c #E37C5B",
"8  c #E1724E",
"9  c #DC6D49",
"0  c #BF4A27",
"q  c #BE4926",
"w  c #DC6C48",
"e  c #E27552",
"r  c #DC592E",
"t  c #DD5B31",
"y  c #DC582D",
"u  c #D8562C",
"i  c #BE4824",
"p  c #BE4723",
"a  c #D7562C",
"s  c #DD5C32",
"d  c #E1734F",
"f  c #DF6841",
"g  c #DC572B",
"h  c #DB5427",
"j  c #DB5428",
"k  c #DC572C",
"l  c #DF6741",
"z  c #D75227",
"x  c #BD4623",
"c  c #D65227",
"v  c #DB5327",
"b  c #DB5429",
"n  c #BE4722",
"m  c #DB5529",
"M  c #BD4723",
"N  c #DF6942",
"B  c #DF6842",
"V  c #DC582C",
"C  c #D85328",
"Z  c #BE4622",
"A  c #D85327",
"S  c #BF4723",
"D  c #DC5428",
"F  c #E2734E",
"G  c #E2896D",
"H  c #D45127",
"J  c #D35027",
"K  c #D75328",
"L  c #D8562B",
"P  c #E18669",
"I  c #DD8063",
"U  c #BF4D2C",
"Y  c #BA4521",
"T  c #BD4622",
"R  c #BE4A27",
"E  c #BE4C2A",
"W  c #BA4523",
"Q  c #BE4D2B",
"!  c #BA4623",
"~  c #E2886C",
"^  c #DD8163",
"/  c #BE4C29",
"(  c #BE4B29",
")  c #DD8164",
"_  c #DD7250",
"`  c #DE7351",
"'  c #E2724F",
"]  c #E2734F",
"[  c #DD6D49",
"{  c #E2724E",
"}  c #E37A57",
"|  c #E1724D",
" . c #E78F73",
".. c #BF4E2B",
"X. c #D85227",
"o. c #E28668",
"O. c #D35127",
"+. c #BA4522",
"@. c #E2886B",
"#. c #DE8163",
"$. c #BF4C2A",
"%. c #E89073",
"&. c #E79073",
"*. c #E28769",
"=. c #E37C5A",
"-. c #DF7452",
";. c #E27957",
":. c #DB6B48",
">. c #D7552B",
",. c #BE4823",
"<. c #DC582E",
"1. c #DB552A",
"2. c #DC5529",
"3. c #E18568",
"4. c #D35026",
"5. c #BE4B28",
"6. c #BA4421",
"7. c #DD8062",
"8. c #DE7452",
"9. c #E1724F",
"0. c #DC592F",
"q. c #D8572D",
"w. c #D75228",
"e. c #D7552C",
"r. c #E18467",
"t. c #BF4824",
"y. c #C04C29",
"u. c #C04D2A",
"i. c #C04F2D",
"p. c #BB4522",
"a. c white",
/* pixels */
"                    . X o O                                                                         O o X .                     ",
"+ + + + + + + + + @ # $ % # @ + + + + + + + + + + + + + + + + + + + + + + + + + + + + + + + + + + @ & % $ # @ + + + + + + + + + ",
"* * * * * * * * * = - ; : - = * * * * * * * * * * * * * * * * * * * * * * * * * * * * * * * * * > , < O ; - = * * * * * * * * * ",
"1 1 1 1 1 1 1 1 1 2 3 4 5 6 2 1 1 1 1 1 1 1 1 1 1 1 1 1 1 1 1 1 1 1 1 1 1 1 1 1 1 1 1 1 1 1 1 1 7 = < O 4 3 2 1 1 1 1 1 1 1 1 1 ",
"8 8 8 8 8 8 8 8 8 8 9 0 q w 8 8 8 8 8 8 8 8 8 8 8 8 8 8 8 8 8 8 8 8 8 8 8 8 8 8 8 8 8 8 8 8 8 e 1 = < O 0 9 8 8 8 8 8 8 8 8 8 8 ",
"r t r y y y y r t r u i p a y y y y y r t r y y y y r t r y y y y y y r t r y y y y y y y y s d 2 = < . p u y y y y y y r t r y ",
"y f g h j j h k l k z p x c j j j j v k f k h j j h k f k v j j j j v k f k h j j j j k b v y 8 2 = < . n z j k j j j v k f g v ",
"m k b j j j j m k m z p M c j j j j j m k m j j j j b k m j j j j j j m k b j j j j k N y v y 8 2 = < . n z k B k j j j m k b j ",
"j j j m k m j j j j z p M c j m k m j j j j m k m j j j j j m k m j j j j j m k m j m k m j y 8 2 = < . n z m V m b k m j j j j ",
"j j j k f k j j j j z p M c j k f k j j j j k f k j j j j j k f k j j j j j k f k j j j j j y 8 2 = < . n z j j j k f k j j j j ",
"j j j m k b m y m j z p M c j m k m m y m j m k m j j j j j m k m j m y m j m k m j j j j j y 8 2 = < . n z j j j m k m j j j j ",
"m k b j j j k f k j z p M c j j j j k f y j j j j j m k m j j j j j k f k j j j j j j j j j y 8 2 = < . n C k m j j j j m k m j ",
"y f k j j j m k m j z p M c j j j j m k m j j j j j k B k j j j j j m k m j j j j j m y m j y 8 2 = < . Z u B k j j j j k B k j ",
"m V m j j j j j j j A S M z D j j j j j j j j j j j m y m j j j j j j j j j j j j j V B V h y F 2 = G . n C y m j j j j m V m j ",
"z z z z z z z z z z H p x J z z z z z z z z z z z z z z z z z z z z z z z z z z z z K L K z u w 3 P I U Z H z z z z z z z z z z ",
"Z Z Z Z Z Z Z Z Z Z Z Y Y T Z Z Z Z Z Z Z Z Z Z Z p p Z Z Z Z Z Z Z Z Z Z Z Z Z Z Z Z Z Z Z p q R % E W Y Z Z p p Z Z Z Z Z Z Z ",
"O O O O O O O O O O O O O O O O O O O O O O O O Q ! ! Q O O O O O O O O O O O O O O O O O O O : : : : O O O Q ! ! Q O O O O O O ",
"~ ~ ~ ~ ~ ~ ~ ~ ~ ~ ~ ~ ~ ~ ~ ~ ~ ~ ~ ~ ~ ~ ~ < ^ / ( I G ~ ~ ~ ~ ~ ~ ~ ~ ~ ~ ~ ~ ~ ~ ~ ~ ~ ~ ~ ~ ~ ~ ~ ~ < ) % % ) < ~ ~ ~ ~ ~ ",
"> > > > > > > > > > > > > > > > > > > > > > = , < ; E - = > > > > > > > > > > > > > > > > > > > > > > > > = P : : P = > > > > > ",
"1 1 1 1 1 1 1 1 1 1 1 1 1 1 1 1 1 1 1 1 1 1 7 = < ; R 3 2 1 1 1 1 1 1 1 1 1 1 1 1 1 1 1 1 1 1 1 1 1 1 1 1 2 _ R 4 ` 2 1 1 1 1 1 ",
"8 8 8 8 8 8 8 8 8 8 8 8 8 8 8 8 8 8 8 8 8 e 1 = < % q 9 ' 8 8 8 8 8 8 8 8 8 8 8 8 8 8 8 8 8 8 8 8 8 8 8 8 ] w R 4 [ { 8 8 8 8 8 ",
"y r s r y y y y y y y y y y y y y y y y s 8 } = < % x u y y r s r y y y y y y y y y y r s r y y y y r s r y u S p u y y r s r y ",
"v k f k v j j j j j k j j j j j k j j v y 8 } = < % T z j v g f k v j j j k j j j j v k f k h j h v k f k h z S p z j v k f k v ",
"j m k m j j j j j k N y j j j k B k j j y 8 } = < % T z m k m k m j j j k f k j j j j m k m j m k m b k m j z S p z j j m k m j ",
"j j j j j j m k b m y m j j j m y m j h y 8 } = < % T z k f k h j j j j m y m j m k m j j j j y B y j j j j z S p z j j j j j j ",
"j j j j j j k f k j j j m k m j j j m k r 8 } = < % T z m k b j j m k m j j j j k f k j j j j m k m j j j j z S p z m k m j j j ",
"j j j j j j m k m j j j y f k j j j k f s | } = < % T z j j j j j y f k j j j j m V m m k m j j j j m k m j z S p z V f k j j j ",
"j j j j j j j j j m k m m k b m k m m k r 8 } = < % T z j m k b j m k m j m k m j j j y f k j j j j V B k j z S p z m k b b k m ",
"j b k m j j j j j k N y j j j k B k j h y 8 } = < % T z j k f k j j j j j k f k j j j m k m j j j j m k m j z S p z j j j k f y ",
"j k B V j j j j j m k m j j j m k m j j y 8 2  .< ..T z D m k m j j j j j m k m j j j j j j j j j j j j j j X.S p z D j j m k m ",
"z K u K z z z z z z z z z z z z z z z z u w ` o.^ E T O.z z z z z z z z z z z z z z z z z z z z z z z z z z H p M J z z z z z z ",
"Z Z Z Z Z Z Z Z Z p p Z Z Z Z Z Z Z Z Z p q R / ( +.Y T Z Z Z Z Z Z Z Z Z Z Z p p Z Z Z Z Z Z Z Z Z Z Z Z Z T +.+.T Z Z Z Z Z Z ",
"; ; ; ; ; ; ; ; / ! ! / ; ; ; ; ; ; ; ; ; $ $ E E ; ; ; ; ; ; ; ; ; ; ; ; ; / ! ! / ; ; ; ; ; ; ; ; ; ; ; ; ; ; ; ; ; ; ; ; ; ; ",
"@.@.@.@.@.@.@.< ^ $ Q I < @.@.@.@.@.@.@.@.@.@.@.@.@.@.@.@.@.@.@.@.@.@.@.@.< #.% $.#.< @.@.@.@.@.@.@.@.@.@.@.@.@.@.@.@.@.@.@.@.@.",
"= = = = = = = , G ..% P %.= = = = = = = = = = = = = = = = = = = = = = = = &.*.% ; *.&.= = = = = = = = = = = = = = = = = = = = = ",
"} } } } } 1 =.* < : R _ 2 } } } } } } } } } } } } } } } } } } } } } } } } 2 3 R 4 -.2 } } } } } } } } } } } } } } } } } } } } } ",
"8 8 8 8 8 e ;.* < : q :.8 8 8 8 8 8 8 8 8 8 8 8 8 8 8 8 8 8 8 8 8 8 8 8 8 8 w q 0 [ 8 8 8 8 8 8 8 8 8 8 8 8 8 8 8 8 8 8 8 8 8 8 ",
"y y y k s 8 1 * < : T >.y y y y y y y y y y y y y y y y y y y y y y y y y y >.M ,.u y y y y y y y y y y y y y y y y y y y y y y ",
"j j j g <.8 1 * < : T c j j j j k j j j j k j j j j j k j j j j j k j j j j z x p X.j k j j j j j j k b j j j j k b j j j j k j ",
"j h k f t 8 1 * < : T c j j j k B k h j k f y j j j k f k j j j k f k j j j z x p A k B k j j j j k f y j j j k f y j j j k f y ",
"m k m k r 8 1 * < : T c j j j b k m k m b k m b k b b k m j j j b k m j j j z x p C m k m m k m j m k m b k m b k m b k m b k m ",
"y f k v y 8 1 * < : T c j m y m h k B k j j j k f k j j m k m j j j m k m j z x p C j j j y f k j j h j V N k j j j k f k j h j ",
"m k m k r 8 1 * < : T c j k f k h m k m j j j m k b j h k f k j j j k f k j z x p C j j j m k m j m k m m k m j j j m k b b k m ",
"j h y B t 8 1 * < : T c j m k 1.y m j j m y m j j j m y m k m m y m m k m j z x p C m y m j j j j k B y j j j m y m j j j k B y ",
"j j m k r 8 1 * < : T c j j h k f k j j k f k j j j k f k h j k f k j j j j z x p A k B V j j j j m V m j j j k f k j j j m y m ",
"j j j h y 8 2 * G : T z D j j m k m j j m k m j j j m k m j j m k m j j j D z x p C 2.V m j j j j j j j j j j m k m j j j j j j ",
"z z z z u w 3 3.^ Q T 4.z z z z z z z z z z z z z z z z z z z z z z z z z z J T p H z z z z z z z z z z z z z z z z z z z z z z ",
"Z Z Z Z p R 5.% Q +.6.T Z Z Z Z Z Z Z Z Z Z Z Z Z Z p p Z Z Z Z Z Z Z Z Z Z T Y Y T Z Z Z Z Z Z Z Z Z Z Z Z Z Z p p Z Z Z Z Z Z ",
": : : : : ....% % : : : : : : : : : : : : : : : : $ ! ! Q : : : : : : : : : : : : : : : : : : : : : : : : : : $ ! ! $ : : : : : ",
"@ @ @ @ @ @ @ @ @ @ @ @ @ @ @ @ @ @ @ @ @ @ @ @ ~ I Q Q I < @ @ @ @ @ @ @ @ @ @ @ @ @ @ @ @ @ @ @ @ @ @ @ @ < I / ( 7.< @ @ @ @ ",
"* * * * * * * * * * * * * * * * * * * * * * * = , < : % - = * * * * * * * * * * * * * * * * * * * * * * * * = o.; / 3.= * * * * ",
"2 2 2 2 2 2 2 2 2 2 2 2 2 2 2 2 2 2 2 2 2 2 1 7 > < : 5.3 2 2 2 2 2 2 2 2 2 2 2 2 2 2 2 2 2 2 2 2 2 2 2 2 2 2 8.4 R 3 2 2 2 2 2 ",
"8 8 8 8 8 8 8 8 8 8 8 8 8 8 8 8 8 8 8 8 8 9.e 1 * < : R w 8 8 8 8 8 8 8 8 8 8 8 8 8 8 8 8 8 8 8 8 8 8 8 8 8 8 [ 0 q w 8 8 8 8 8 ",
"<.<.<.r s r <.<.<.<.<.y <.<.<.<.<.<.<.y y s 8 1 * < O p u <.<.<.<.<.y <.<.<.<.<.<.<.<.<.0.s r <.<.<.<.<.y <.r q.p M a r <.<.y <.",
"j j h k f k h j j j j k j j j j j j j k j V | 1 * < O Z w.k j j j j k j j j j k j j j h k f k v j j j j k j j X.p x z j j j k b ",
"j j j m k m j j j j y f k j j j j j k f k V | 1 * < O Z >.f k j h k f k j j k f k j j j m k m j j j j k f y h C p x z j j k f y ",
"j j j j j j m k b j m k m j m k m j m k b y | 1 * < O Z K k b m k m k m j m y y b j m k b j j m k m j m k 1.k C p x K k b b k m ",
"m k b j j j V f k j j j j j y B y j j j j y | 1 * < O Z z j j k f k j j j k f k j j k B k j j y B y j j h k f u p T >.f k j j j ",
"y l k j j j m k m j j j j j m k m b k m j y | 1 * < O Z z j j m k b j j j m k b j j m k b j j m k m j j j m k C p x K k m j j j ",
"m k m k b j j j j j m k m j j j j k B k h y | 1 * < O Z K k m j j b k b j j j m k m j j m k m j j j j m k m j C p x z j j b k m ",
"j h k f k j j j j j y f k j j j j m k m j y | 1 * < O Z >.f y j j y f k j j j k f k j j k B k j j j j k f y j C p x z j j k f y ",
"j j m k m j j j j j m k m j j j j j j j j y 8 1 > G . Z K y m j j m y m j j j m V m j j m y m j j j j m k m j C p x z D j m V m ",
"z z z c z z z z z z z c z z z z z z z z c e.w 3 r.# Q T J z z z z z c z z z z z c z z z z c z z z z z z c z z H p T J z z z c z ",
"S S S S S S S S S S S S S S S S S S S S S t.y.u.i.O X p.p S S S S S S S S S S S S S S S S S S S S S S S S S S p p.+.p S S S S S "
};
