/* XPM */
static char *_65d5abe9a734aa6f21fee9718c4b9dbEHpZlh5cCrdClejM[] = {
/* columns rows colors chars-per-pixel */
"64 64 239 2 ",
"   c #22256E",
".  c #736E6E",
"X  c #777375",
"o  c #74767A",
"O  c #7C767B",
"+  c #767A7E",
"@  c #7B7B7E",
"#  c #BE4723",
"$  c #BE4925",
"%  c #BF4E2C",
"&  c #B35134",
"*  c #B35234",
"=  c #BD5333",
"-  c #B7573B",
";  c #C04A27",
":  c #C04E2C",
">  c #C0502E",
",  c #CD512B",
"<  c #D65227",
"1  c #DB5427",
"2  c #D6542A",
"3  c #DB5529",
"4  c #D7582F",
"5  c #DC582E",
"6  c #C15333",
"7  c #C85C3A",
"8  c #D55B34",
"9  c #DB5C32",
"0  c #D25E39",
"q  c #D85F3A",
"w  c #CB613F",
"e  c #D3613D",
"r  c #DB623B",
"t  c #955F56",
"y  c #A95E48",
"u  c #B55E44",
"i  c #98675C",
"p  c #AD644E",
"a  c #B8644A",
"s  c #A66858",
"d  c #B76A53",
"f  c #B8735E",
"g  c #B65E68",
"h  c #8C6D6A",
"j  c #986C69",
"k  c #89726C",
"l  c #96746B",
"z  c #976D73",
"x  c #867677",
"c  c #967978",
"v  c #A96A67",
"b  c #B6696A",
"n  c #A7756A",
"m  c #B77869",
"M  c #AF6B74",
"N  c #A77A75",
"B  c #F6595E",
"V  c #CB6444",
"C  c #C7684A",
"Z  c #D36745",
"A  c #DE6740",
"S  c #DE6943",
"D  c #D46B4A",
"F  c #DB6D4A",
"G  c #D7704F",
"H  c #C76E53",
"J  c #C7745A",
"K  c #DD7452",
"L  c #D67758",
"P  c #DB7A5B",
"I  c #E1724E",
"U  c #E17452",
"Y  c #E37957",
"T  c #E3765C",
"R  c #E37A58",
"E  c #DC5B68",
"W  c #E85C66",
"Q  c #F75C64",
"!  c #C96369",
"~  c #D56267",
"^  c #C67B66",
"/  c #D97E62",
"(  c #D16C78",
")  c #E96266",
"_  c #F7666B",
"`  c #F86B73",
"'  c #F87579",
"]  c #96817A",
"[  c #AC806F",
"{  c #AB8379",
"}  c #B98576",
"|  c #C8816B",
" . c #DB8164",
".. c #D7856B",
"X. c #DE866B",
"o. c #C78876",
"O. c #D78872",
"+. c #CB917F",
"@. c #D7917B",
"#. c #DB927B",
"$. c #E28364",
"%. c #E0876A",
"&. c #E1886B",
"*. c #E78E71",
"=. c #E98D74",
"-. c #E49075",
";. c #E2937A",
":. c #E8967C",
">. c #2E3887",
",. c #345095",
"<. c #326AB0",
"1. c #767A80",
"2. c #7C7C82",
"3. c #4E73AE",
"4. c #857E80",
"5. c #997E82",
"6. c #A77B83",
"7. c #C57C83",
"8. c #EA7781",
"9. c #F97C84",
"0. c #7D878F",
"q. c #5188B5",
"w. c #6B8FB3",
"e. c #77A2BB",
"r. c #4F8FC6",
"t. c #658BC5",
"y. c #77B2D6",
"u. c #7FC0E4",
"i. c #828286",
"p. c #85868A",
"a. c #898788",
"s. c #8B898D",
"d. c #968888",
"f. c #8D8D92",
"g. c #8D8E9B",
"h. c #938E92",
"j. c #9A8D90",
"k. c #929190",
"l. c #929296",
"z. c #9B9495",
"x. c #95959B",
"c. c #95999D",
"v. c #9A9A9E",
"b. c #A58B88",
"n. c #B88C82",
"m. c #A6918D",
"M. c #B4958C",
"N. c #A69797",
"B. c #9DA29E",
"V. c #B1A19A",
"C. c #959BA2",
"Z. c #9C9CA2",
"A. c #A49DA6",
"S. c #9CA1A6",
"D. c #91A3B1",
"F. c #A3A2A5",
"G. c #A3A4AA",
"H. c #AAA5A8",
"J. c #AAAAAD",
"K. c #B3ADAE",
"L. c #ADABB2",
"P. c #B7B6B9",
"I. c #CD8E8B",
"U. c #D59683",
"Y. c #FB8687",
"T. c #FC848A",
"R. c #E59985",
"E. c #FC8D93",
"W. c #E79197",
"Q. c #FD9395",
"!. c #F4949B",
"~. c #FD969C",
"^. c #FC9A9E",
"/. c #D8A99A",
"(. c #EAA48E",
"). c #E5A996",
"_. c #EDA99A",
"`. c #E69EA3",
"'. c #FD96A1",
"]. c #FD9AA2",
"[. c #FA9CA7",
"{. c #CEB1AE",
"}. c #DCB3A8",
"|. c #D9B4B2",
" X c #E7A8A9",
".X c #E6B6A7",
"XX c #EDB0B2",
"oX c #F5B9B9",
"OX c #D1C4BD",
"+X c #E7C4BC",
"@X c #90B9D6",
"#X c #AEB9C2",
"$X c #BCBDC2",
"%X c #C3BEC2",
"&X c #F0BDC1",
"*X c #95C4DA",
"=X c #B4CAD4",
"-X c #92C8E4",
";X c #A9D3E9",
":X c #C3C3C6",
">X c #C6C5C9",
",X c #C7C8C9",
"<X c #CCCBCC",
"1X c #D4C3C6",
"2X c #CECED1",
"3X c #D7CDD4",
"4X c #CFD3D2",
"5X c #D4D3D4",
"6X c #D5D5D8",
"7X c #D9D7D8",
"8X c #DCDCDC",
"9X c #E8CAC8",
"0X c #F7C8CB",
"qX c #E8D3CB",
"wX c #E5CED2",
"eX c #F8CDD3",
"rX c #E6DAD9",
"tX c #F9D6D8",
"yX c #DAE2DE",
"uX c #E6E2DE",
"iX c #F0E2DD",
"pX c #C4D9E5",
"aX c #D6DDE3",
"sX c #E1DEE3",
"dX c #FCDEE1",
"fX c #D4E0E7",
"gX c #DDE3E3",
"hX c #E4E3E4",
"jX c #E8E6E7",
"kX c #ECEBEC",
"lX c #F4E9E7",
"zX c #EDF2EE",
"xX c #F5F1EE",
"cX c #EEEEF1",
"vX c #F4EEF2",
"bX c #ECF3F3",
"nX c #F4F4F4",
"mX c #F7F7F7",
"MX c #FCFBFC",
/* pixels */
"> > > > > > > > > > : # # % > > > > > > > > > > > > > > > > > > > > > > > > > > > > > > > % % > > > : # # > > > % > % % > > > > ",
"%.%.%.%.%.%.X.X.X.X. .% % / X.%.%.%.%.%.%.%.%.%.%.%.%.%.%.%.%.%.%.%.%.%.%.%.%.%.%.%.%.%.%.%.X.X.X.X./ = =  .X.X.X.X.X.%.%.%.%.%.",
"*.*.-.;.;.#.@.@.U.U.o.p p o.@.@.#.-.-.*.*.*.*.*.*.*.*.*.*.*.*.*.*.*.*.*.*.*.*.*.*.*.*.-.@.@.+.+.+.n.{ s s } I.U.U.U.@.#.;.-.*.*.",
"Y R / ....O.o.| } } m s s m ^ ^ ^ | / / R R R R R R R R R R R R R R R R R R R Y R P ..} b.b.{ m b b b v v n N { } o.O... ./ R Y ",
"I U P ^ o.o.} n n b ! ~ W ) ~ ~ b n m ^ L P U I I I I I I I I I I I I I I I I K L } b.z.d.N ! ) ) ) _ ) W ! n x ] { o...P P I I ",
"5 q D J } N l N ( 8.9.Y.Y.' ' _ ) ! j n J C e 9 5 5 5 9 5 5 5 5 5 5 5 5 9 5 9 C [ j.j.d.M E _ ` 9.T.Y.Y.T.9.( N x x m J D r 9 5 ",
"5 F G m c x N I.!.^.].].^.^.~.E.9._ ~ v N m C 0 5 3 5 A 5 1 3 3 3 3 1 5 r 5 V N N.j.c b W _ 9.Q.'.[.].^.].'.!.I.x O c f D F 5 1 ",
"3 r H c @ c I.!.^.^.^.].[.].].].!.Y._ E v c m H e 5 3 5 3 3 3 3 3 3 3 3 5 0 n l.g.4.b W ` Y.~.'.^.^.^.^.^.].^.W.c O x n C e 3 3 ",
"3 8 C l + 6.W.^.^.^.^.^.].].^.^.^.^.T._ ~ c d.{ f w 3 3 3 3 3 5 3 3 3 3 4 d d.f.2.v W Q T.^.'.[.^.^.].].'.^.^.W.5.O O l C e 3 3 ",
"3 0 d k X 6.!.^.^.].].].].].].].~.^.~.9.) b 4.d.c s 0 3 3 3 5 A 5 3 3 3 7 h i.i.x ! Q ' E.^.].[.'.'.[.[.'.'.].W.5.O + x d 0 3 3 ",
"3 0 s k x 6.W.~.^.^.^.].].].[.[.^.^.].Q.` ~ x @ @ k d 9 5 3 3 5 3 3 3 8 s x 1.x b W _ Y.].].^.^.].].].].^.].^.I.x O O h s 0 3 3 ",
"3 7 s h x c I.!.~.Q.Q.Q.E.E.T.E.Q.~.].^.' W M 2.+ O l J K G Z e 9 3 5 D h + + x ~ Q ` !.[.'.Q.Q.Q.Q.Q.Q.~.].!.7.x x k i p 0 3 1 ",
"5 D s s j j n ( 8.' ' ' ` _ _ _ ` ' Y.Y.' Q g x + + O M.}.{.M.} J e 9 C k + + z W Q ` Y.T.9.' ` ` ` ` ' ' 8.( c k s p a V F 3 1 ",
"3 9 7 C d s i j v M M b b ! ! ~ ~ W Q _ _ Q E x + 2.p.v.K.P.J.v.m.N a s x 2.@ M W B Q _ _ ) ) E ~ ! ! ! ! b j k h s w 0 9 5 3 3 ",
"< 2 8 0 0 7 a s s i j i i s s i s b ! W Q Q W z 2.0.f.l.v.G.G.G.A.l.x X O + O M Q B Q W ! b v j z c c h h h s a 7 0 8 8 2 < < < ",
"# # $ $ # $ $ & & & & & & & & & & t h j ~ Q W z + 2.1.f.x.l.c.x.f.p.o o + + O b Q W b z h s u - - - - & & & % $ ; ; $ $ # # # # ",
"% % % % % % : > > > > > > > > > = - y i z ! E j X o 0.s.+ 2.p.2.1.2.2.i.i.0.x M E g h n a - 6 > > : : : : : % # # % % % % % % % ",
"&.&.&.&.&.&.&.&.&.&.&.&.&.&.&.&.&.&.X.O.} M b c @ o 2.o o o + i.f.x.x.v.c.x.h.6.v N n.@.&.&.&.&.&.&.&.&.&.&. .% %  .&.&.&.&.&.&.",
"*.*.*.*.*.*.*.*.*.*.*.*.*.*.*.*.*.*.*.*.O.{ b.j.p.o + 2.o 2.f.x.Z.Z.v.c.Z.C.x.z.d.M.#.*.*.*.*.*.*.*.*.*.*.*.%.% % %.*.*.*.*.*.*.",
"R R R R R R R R R R R R R R R R R R R R | j.c.Z.f.2.f.s.i.l.Z.Z.Z.v.c.S.G.x.c.c.l.m.| R R R R R R R R R R R K $ % K R R R R R R ",
"I I I I I I I I I I I I I I I I I I K ^ b.Z.C.x.J.J.Z.f.x.Z.Z.Z.Z.c.J.P.G.h.l.L.H.z.b...U I I I I I I I I I F $ $ F I I I I I I ",
"5 5 9 5 5 5 5 5 5 5 5 5 5 5 5 5 5 8 J b.K.P.A.v.L.6X>XF.Z.Z.Z.Z.c.S.4X7X:X3X3X2X6XL.N.} D 9 5 5 5 5 5 9 5 5 5 $ # 2 5 5 5 9 5 5 ",
"1 5 A 5 1 3 3 3 3 3 5 3 3 3 3 3 5 Z n.H.<X6XsXhX7XhXjX$XZ.Z.Z.Z.Z.P.kXmXbXvXvXbXbX6XG.m./ r 3 1 1 1 5 A 5 1 < # # < 3 1 5 A 5 1 ",
"3 3 5 3 3 3 3 3 3 5 A 5 3 3 3 5 F J N.%XuXhXgX7X8XkXmXhXJ.Z.Z.Z.Z.:XmXmXyX:X%X4XhXjXP.N.J r 5 3 5 3 3 5 3 3 < # # < 3 3 3 5 3 3 ",
"3 3 3 3 3 3 3 5 3 3 5 3 3 3 3 3 r } F.>X1XF.a.@ a.K.jXzX{.Z.Z.Z.B.4XkX,Xk.4.4.+ k.<X>XN.^ Z 9 5 A 5 3 3 3 3 < # # < 3 3 3 3 3 3 ",
"3 3 3 3 3 3 5 A 5 3 3 3 3 5 3 3 D V.J.$Xl.. z.#XD.0.P.jX2XS.C.Z.G.5XaXc.0.@X=XF.. F.,XA.n.^ e 5 5 3 3 3 3 3 < # # < 3 5 3 3 3 3 ",
"3 3 3 3 3 3 3 3 3 3 1 1 5 A 5 8 ^ V.F.P.k.z.=Xy.r.q.e.5X7XG.v.v.F.2X>Xw.3.3.y.=XJ.P.5XF.N.n.H 5 3 3 3 5 3 3 < # # < 5 A 5 3 3 3 ",
"3 3 3 3 3 3 3 3 1 3 3 3 3 5 3 e { H.A.P.OX2X*X,.  3.e.#X4XL.A.Z.B.,X#X3.>.  w.-X4X5X7XG.A.N.m 0 3 3 5 A 5 3 < # # < 3 5 3 3 5 3 ",
"3 3 5 3 3 3 3 3 3 5 A 5 3 3 3 C m.S.Z.L.5XaXy.,.  ,.r.=X5XJ.c.c.v.:X=Xw.>.  ,.-XfXrX,XZ.v.N.m Z 5 3 3 5 3 3 < # # < 3 3 3 5 A 5 ",
"3 5 A 5 3 3 3 3 3 5 9 3 3 3 8 J N.C.Z.L.5XgX;Xt.,.<.y.pX3XA.C.c.C.P.5X*Xt.<.r.;XgX7XP.x.v.N.{ H e 9 5 3 5 5 2 $ # < 3 3 3 3 5 3 ",
"< 2 5 2 < < < 2 8 8 0 8 8 0 C N H.P.,X2X7X7XaX*Xy.u.pX8X2XL.A.H.H.P.8XaX;X-X;XyX8X7XP.J.G.v.m.{ f C V e e 0 8 $ # < < < < < < < ",
"# # # # # # # # % = - u a f { V.<X8XyXgXjXjXjXhXaXyXgX8X9X|.|.|.|.|.3XgXjXhXjXkXcXmXkXjX8X2XP.N.N n p u - = % # # # # # # # # # ",
"% % % % % % % % % % = C J | I.|.rXkXmXmXmXMXMXmXvXhXhXrXXXXX&X0XoX`.|.jXjXkXmXmXMXMXMXMXMXmXkX7X/.| H C 7 7 6 % % % % % % % % % ",
"&.&.&.&.&.&.&.&. .6 7 #.R.)..XqXxXmXMXMXMXmXmXnXjXhXbXkX9XXXXXXX X XwXbXbXhXjXmXmXMXMXMXMXMXMXmXlX9X.XR.;.;.-.&.&.&.&.&.&.&.&.&.",
"*.*.*.*.*.*.*.-.&.6 7 ;.)..XtXxXmXMXMXMXMXmXmXjXhXgXnXmXnXlXeX0XtXjXkXcXjXsXjXmXmXMXMXMXMXMXmXmXmXxXiX.X(.R.:.-.-.*.*.*.*.*.*.*.",
"R R R R R Y R *.&.6 7 X.:.).qXxXmXmXMXMXMXMXMXmXzXjXjXlXlXjXjXkXjXsXjXsXrXjXnXmXmXMXMXMXMXMXMXmXmXkXiX.X;.&.%.$.R R R R R R R R ",
"I I I I I U Y *.*.7 7 / -..XlXmXMXMXmXMXMXMXMXMXmXmXzXuX{.b.|.5XV.b.1XjXbXbXmXmXmXMXMXmXmXmXmXmXmXmXtX(.&.$.R U I I I I I I I I ",
"5 5 5 5 9 I Y *.&.6 6 S P ).tXlXlXkXkXmXmXmXmXmXMXMXmXmX1Xc 6.I.M m.uXmXmXmXmXmXmXmXmXmXkXjXuXrXqX+XR.K F r 9 5 5 5 5 5 5 5 5 5 ",
"3 3 3 3 5 I Y *.&.6 : 0 S P #.).).+XrXjXkXjXjXkXmXMXmXmXkX7X|. X&XyXzXMXMXMXMXmXjXhXhXlXiXqX/.U. .P F r 9 3 3 3 5 3 3 3 3 3 5 3 ",
"3 1 5 A 9 I Y *.&.% $ 4 9 r S K X. .#.}.qXuXhXjXjXxXxXjXhXmXmXvXmXkXhXvXmXmXmXxXrXOX{./.;.R F A 8 9 A 5 3 3 3 5 A 5 3 3 3 5 A 5 ",
"3 5 3 5 5 I Y *.&.% # 2 5 5 5 9 r r F P U.}..X1X,X:X2X7X2X6XjXcXjX7X5X7X8X5X%X{./.O.P F r 9 9 3 3 3 5 3 3 5 3 3 5 3 3 5 3 3 5 3 ",
"5 A 5 1 5 I Y *.&.% # < 3 3 5 3 3 5 F 9 r A D o.j.p.J.:X:X,X2X6X8XhX8X2X>XL.i.a.N Z 9 5 3 5 A 5 3 3 1 3 5 A 5 3 3 3 5 A 5 3 1 3 ",
"3 5 3 5 5 I Y *.&.% # < 3 5 A 5 1 3 5 3 3 e m b.i.2.L.>X<X6XsXkXmXmXmX6X,X$Xp.2.d.J r 5 3 3 5 3 3 3 5 3 3 5 3 3 3 3 3 5 3 3 5 3 ",
"3 1 5 A 9 I Y *.&.% # < 3 3 5 3 5 3 3 5 Z } N.h.+ f.$X,X5XcXmXmXmXmXmX6X,X:Xv.+ s.b.^ D 9 3 3 3 3 5 A 5 3 3 3 3 5 3 3 3 3 5 A 5 ",
"3 3 3 5 5 I Y *.&.% # < 3 3 1 5 A 5 5 V } N.x.2.+ J.>X>X5XjXhX8X8X7X5X<X>X>XL.2.+ j.m.| Z 5 3 3 3 3 5 3 3 3 3 5 A 5 3 3 3 3 5 3 ",
"3 3 3 1 5 I R *.&.% # < 3 3 3 3 5 3 0 } N.x.2.. s.$X<X:X,X<X<X<X<X<X>X>X>X,X:Xx.. @ d.} D r 5 3 3 3 3 3 3 3 3 3 5 3 3 3 3 3 3 3 ",
"< < < < 2 F K $. .% # < < < < < < 2 V b.x.s.o X i.L.:X<X6XaXjXjXjXjXhX8X5X,XP.f.o + s.m.m V 2 < < < < < < < < < < < < < < < < < ",
"# # # # # $ $ % % # # # # # # # # $ a m.x.l.f.p.p.f.J.2XkXmXMXMXMXMXmXcX7XL.l.p.f.l.c.Z.m.d % # # # # # # # # # # # # # # # # # ",
"% % % % % % % % % : : : % % % % : = a d.x.v.c.x.c.x.v.J.>XsXmXMXMXmXjX<XL.v.v.c.v.Z.Z.Z.z.v = : % : % % % % : % # # % : % % % % ",
"&.&.&.&.&.&.&.&.&.&.&.&.&.&.&.&.&.&.o.c a.x.Z.Z.v.Z.Z.Z.S.J.:XkXbX<XJ.Z.Z.Z.Z.Z.Z.Z.Z.p.a.o.X.&.&.&.&.&.&.&.&. .% % / &.&.&.&.&.",
"*.*.*.*.*.*.*.*.*.*.*.*.*.*.*.*.*.*.*.} x x.A.Z.Z.Z.Z.Z.x.s.p.P.,Xs.p.f.F.Z.Z.Z.Z.v.x.@ ] @.*.*.*.*.*.*.*.*.*.$.% % $.*.*.*.*.*.",
"R R R R R R R R R R R R R R R R R R R ^ k l.A.Z.v.c.Z.S.G.i.. M.M.. @ G.G.Z.Z.v.c.Z.v.k m / R R R R R R R R R K $ $ K R R R R R ",
"I I I I I I I I I I I I I I I I I U P m X p.S.c.x.f.x.Z.G.d.n / P f c G.Z.c.l.x.x.S.l.j J P U U I I I I I I I F $ $ F I I I I I ",
"5 5 5 5 9 5 5 5 5 5 5 5 5 5 5 5 5 r H m X o f.p.s.s.i.l.b.s V 8 5 e v j.l.p.p.f.p.f.O i C Z r 9 9 5 5 5 5 5 5 5 $ # 2 5 5 5 5 5 ",
"3 3 1 5 A 5 1 3 3 3 3 5 3 3 3 3 5 8 V s . a.A.j.s.F.h.x s V 9 3 3 5 V i k X z.A.a.h.z.{ a H e 9 3 3 3 3 5 3 3 1 # # < 3 3 3 5 3 ",
"3 3 3 3 5 3 3 3 3 3 5 A 5 3 3 3 5 0 H I.{.wXwX1X1XrX1Xj.s D 5 3 1 5 F a i m.1XwX1X1XwX+X..D 0 8 5 3 3 5 A 5 1 1 # # < 3 3 5 A 5 ",
"3 3 3 3 3 3 3 5 3 3 3 5 3 3 3 5 4 V /.9XeXtXeX0XtXtX0X{.m 0 3 3 5 3 0 a m |.0X0XtXeX0X0X(.$.A 0 9 3 3 3 5 3 5 < # # 2 5 3 3 5 3 ",
"3 5 3 3 3 3 5 A 5 3 3 3 3 3 5 A 5 Z .XeXtXdXeXeXlXeX0X9XJ 0 3 5 A 5 0 s } 9X9XeXlXeX0X0X:.U A r F 5 3 3 1 5 A 5 # # 2 A 5 3 3 3 ",
"5 A 5 3 3 3 3 5 3 3 3 3 3 3 3 5 3 r ;.0XdXdXtXtXtXtXlXqXL 8 5 3 5 3 0 p o.qXlXdXdXtXtXoX=.U S 9 5 3 3 3 3 3 5 < # # 2 5 3 3 3 3 ",
"3 5 3 5 3 3 3 3 3 3 3 5 3 3 3 3 3 9 R (.eXtXtXtXtXoX+X+XL 8 5 3 3 3 0 y ^ 9X9X+XtXtXeX_./ F r 9 3 3 1 3 5 3 3 1 # # < 3 3 3 5 3 ",
"3 1 5 A 5 3 3 3 3 1 5 A 5 3 3 3 3 3 r R XXeXtXtXeXXX X}.H F 9 3 3 9 D u d R.*.R.0X0X0X!.U U r 5 3 1 3 5 A 5 3 1 # # < 3 3 5 A 5 ",
"3 3 3 5 3 3 3 3 3 3 3 5 3 3 3 3 3 3 5 A =. X&XoXXX X^ a - 8 5 3 5 9 8 0 7 Z F P =.R.R.T A r 9 3 3 3 3 3 5 3 3 < # # < 3 3 3 5 3 ",
"< < < < < < < < < < < < < < < < < < 2 8 r K X.X.R.O.7 $ , 2 2 2 < 2 2 2 2 2 8 q Z F F q 8 2 2 2 < < < < < < < < # # < < < < < < ",
"# # # # # # # # # # # # # # # # # # # $ ; : > 6 6 6 $ # # # # # # # # # # # $ ; ; : : ; $ # # # # # # # # # # # # # # # # # # # "
};
