/* XPM */
static char *_2206752858b4191e3da94d27b9bf3f0FNiK8tskpTWO3Snz[] = {
/* columns rows colors chars-per-pixel */
"64 64 158 2 ",
"   c #CD3434",
".  c #CB3836",
"X  c #CD3D3D",
"o  c #D03D3C",
"O  c #CA4140",
"+  c #CF4D4D",
"@  c #D04E4E",
"#  c #CF504F",
"$  c #CF4F50",
"%  c #D14F51",
"&  c #CF5251",
"*  c #CF5A5A",
"=  c #D15152",
"-  c #D25857",
";  c #D15A59",
":  c #D7605F",
">  c #D8605F",
",  c #CF6261",
"<  c #D36464",
"1  c #D86061",
"2  c #D46967",
"3  c #D46969",
"4  c #D57877",
"5  c #D5797A",
"6  c #D78484",
"7  c #D78887",
"8  c #D78888",
"9  c #DC8B8B",
"0  c #DB8F90",
"q  c #DB9393",
"w  c #DF9A9A",
"e  c #E08C8C",
"r  c #E29897",
"t  c #E39C9B",
"y  c #DDA09F",
"u  c #DD9FA0",
"i  c #DEA0A0",
"p  c #E6A3A3",
"a  c #E7BEBE",
"s  c #E9BEBE",
"d  c #ECC0BE",
"f  c #F0C0BF",
"g  c #E5C6C6",
"h  c #EEC0C0",
"j  c #EACBCB",
"k  c #F0C0C0",
"l  c #EECFD0",
"z  c #ECD2D2",
"x  c #EFD9D7",
"c  c #ECDDDD",
"v  c #F3D2D2",
"b  c #F0D9DA",
"n  c #EEE0DF",
"m  c #F2E0DF",
"M  c #EEDFE0",
"N  c #EDE4E4",
"B  c #EEE8E5",
"V  c #ECE7E9",
"C  c #EDEDED",
"Z  c #F4E4E4",
"A  c #F6E9E7",
"S  c #F4E7E8",
"D  c #F2EAEA",
"F  c #F9EAEA",
"G  c #EEF0EF",
"H  c #F4F0EF",
"J  c #EFEFF0",
"K  c #EEF1F0",
"L  c #EFF0F1",
"P  c #EDF2F1",
"I  c #EEF2F1",
"U  c #EDF2F2",
"Y  c #EDF3F2",
"T  c #EEF2F2",
"R  c #EFF3F3",
"E  c #EFF2F3",
"W  c #EDF1F1",
"Q  c #EEF5F3",
"!  c #EFF2F4",
"~  c #EFF4F4",
"^  c #EFF6F6",
"/  c #EEF2F2",
"(  c #EFFCFB",
")  c #F1F0F0",
"_  c #F0F1F2",
"`  c #F1F3F3",
"'  c #F2F3F3",
"]  c #F3F3F3",
"[  c #F7F0F0",
"{  c #F4F3F3",
"}  c #F1F4F3",
"|  c #F0F4F3",
" . c #F2F4F3",
".. c #F1F2F4",
"X. c #F2F3F4",
"o. c #F3F3F4",
"O. c #F0F5F5",
"+. c #F1F4F4",
"@. c #F2F4F4",
"#. c #F2F5F5",
"$. c #F2F6F5",
"%. c #F7F6F7",
"&. c #F4F5F5",
"*. c #F3F3F3",
"=. c #F8F0F0",
"-. c #FDF5F5",
";. c #FDF6F5",
":. c #FEF6F5",
">. c #FEF6F6",
",. c #FDF5F5",
"<. c #FAF8F7",
"1. c #F2F9F8",
"2. c #F3F8F9",
"3. c #F3FBFA",
"4. c #F3FBFB",
"5. c #F7FBFB",
"6. c #F7FCFB",
"7. c #F3FCFC",
"8. c #F2FDFD",
"9. c #F1FDFE",
"0. c #F1FFFF",
"q. c #F2FFFF",
"w. c #F3FFFF",
"e. c #F4FFFF",
"r. c #F4FCFC",
"t. c #F3FDFD",
"y. c #F8F8F8",
"u. c #F8F9F9",
"i. c #F8F9FA",
"p. c #FAFBFB",
"a. c #FFF8F8",
"s. c #FFF9F8",
"d. c #FCFBFB",
"f. c #FFFBFB",
"g. c #FBFCFA",
"h. c #FBFCFB",
"j. c #FBFDFB",
"k. c #FEFCFB",
"l. c #F9FBFC",
"z. c #F9FCFC",
"x. c #F8FDFC",
"c. c #F9FDFC",
"v. c #F9FDFD",
"b. c #FAFCFC",
"n. c #FBFCFC",
"m. c #FAFCFD",
"M. c #FAFDFD",
"N. c #FAFFFE",
"B. c #FAFFFF",
"V. c #FBFFFF",
"C. c #FEFCFC",
"Z. c #FFFDFD",
"A. c #FFFDFE",
"S. c #FCFFFF",
"D. c #FDFFFF",
"F. c #FFFFFE",
"G. c white",
"H. c #FDFEFE",
/* pixels */
"J C K K N.G.G.G.5.K K K $.G.G.G.G.$.K K G N.G.G.G.N.K K K } G.G.G.G.$.K K K N.G.G.G.N.K ! K } G.G.G.G.$.K ` K 6.G.G.G.N.K K C C ",
"C J B c S F F F Z c c N N F F F F n c c N S F F F Z c c c N F F F F N c c c Z F F F S N c c n F F F F N N c c Z F F F S c B J C ",
"K B + @ = @ @ @ @ & = X @ = = % % = = & X @ = = = = = = = X + = & @ X = = = = = = - @ X & % % = = = = % X = & + % @ @ % @ @ V K ",
"K c @ N g.G.G.G.p.X.Z + x k.>.>.>.Z B D = v G.>.a.[ B B ` * d G.G.f ; X.B B =.a.>.G.v = D B B >.>.>.a.b + B ` p.G.G.G.N.n @ c K ",
"N.S = g.w ; < < * w g.= Z 1.$.` ` &.p.N.; z w.` X.&.l.p.G.< s 1.1.s < G.p.N.&.X.` e.z ; N.p.&.` } } 1.Z = N.w ; < < * w g.= S N.",
"G.F @ G.; q g g q ; G.& Z K C K w.G.G.G.: j ^ C C [ G.G.G.< j e.w.j < G.G.G.[ C C Q j 1 G.G.G.w.K C K S = G.; q g g q ; G.@ F G.",
"G.F @ G.< g w.w.j < G.= Z K K c q 0 q q . z ^ C C &.G.G.G.* 2 q q 3 * G.a.G.&.C C $.z . q q 9 q x ` K Z = G.< j w.w.g < G.@ F G.",
"G.F @ G.< g w.w.j < G.= S C 9.u O r e e p D C C C &.G.G.G.d 6 8 8 6 h G.G.G.&.C C C D p 9 9 r O i 1.C S = G.< j w.w.g < G.@ F G.",
"5.Z @ p.* q j j r ; p.& m &.N.t 6 G.N.G.N.&.&.&.&.&.&.&.&.e.N.N.N.N.N.&.&.&.&.&.&.&.&.N.N.N.G.6 t N.&.Z = p.; r j j q ; g.@ Z p.",
"K c & ` w ; < < ; q ` & c G.G.p 5 9.N C C p.G.G.G.p.C C C C G.G.G.G.C C C C p.G.G.G.p.C C N w.5 p G.G.n & X.q - < < ; w ` @ c K ",
"K c = Z N.G.G.G.p.X.Z & b a.G.t 5 e.C C C p.G.G.G.&.C C C ` G.G.G.G.` C C C &.G.G.G.p.C C C e.5 t G.a.b & Z } p.G.G.G.l.Z = c K ",
"K N X + = = = = & & &   % & ; X q w.C C C p.G.G.G.p.C C C C G.G.G.G.C C C C p.G.G.G.p.C C C w.q X ; & #   = & & = & = & @ X N K ",
"$.N @ x Z S Z S m c x % j A Z S &.` ` ` ` &.G.p.G.&.` ` ` ` p.p.p.p.` ` ` ` &.G.p.G.&.` ` ` ` &.S Z A l & b N m S Z Z Z x % N $.",
"G.F = k.1.K K C &.G.a.& A $.K K C G.G.G.G.` C C C &.G.G.G.G.C C C C G.G.G.G.&.C C C ` G.G.G.N.C K K ^ A & a.G.&.C K K 1.a.= F G.",
"G.F = >.X.C K 9.N.G.G.; Z K C C C G.G.G.G.` C C C &.G.G.G.G.C C C C G.G.G.G.&.C C C ` G.G.G.G.C C C K Z ; G.G.N.3.K C $.>.= F G.",
"G.F = >.` K c i t p t X S K C C C G.G.G.G.` C C C &.G.G.G.G.C C C C G.G.G.G.&.C C C ` G.G.G.G.C C C K S X t p t i c K } >.% F G.",
"G.F % >.` w.q O 6 5 5 q &.C C C C G.G.G.G.` C C C &.G.G.G.p.C C C C p.G.G.G.&.C C C ` G.G.G.G.C C C C %.q 4 5 6 O q w.` >.% F G.",
"$.c = Z &.G.9 r G.w.e.w.` G.G.G.G.` C ` C &.G.G.G.&.C ` C ` G.G.G.G.` C ` C &.G.G.G.&.C ` C ` G.G.G.G.` w.e.w.G.r 0 G.&.B = M $.",
"K c = B p.G.q e N.N C C ` G.G.G.G.C C C C p.G.G.G.p.C C C ` G.G.G.G.` C C C p.G.G.G.p.C C C C G.G.G.G.` C C N N.e q G.p.B = c K ",
"K c & D N.G.q e G.C C C ` G.G.G.G.` C C C p.G.G.G.&.C C C ` G.G.G.G.` C C C &.G.G.G.p.C C C ` G.G.G.G.` C C C N.9 q G.N.D = c K ",
"G N o = ; 1 . p N.C C C ` G.G.G.G.C C C C p.G.G.G.p.C C C C G.G.G.G.C C C C p.G.G.G.p.C C C C G.G.G.G.` C C C N.p . 1 ; = X N K ",
"N.S @ v z j z D &.p.p.p.&.` ` ` ` &.p.p.p.&.` ` ` &.p.p.p.&.` ` ` ` &.p.p.p.&.` ` ` &.p.p.p.&.` ` ` ` &.p.p.p.&.C z j z v @ S N.",
"G.F = G.w.^ $.C &.G.G.G.G.C C C C G.G.G.G.` C C C &.G.G.G.G.C C C C G.G.G.G.&.C C C ` G.G.G.G.C C C C G.G.G.G.&.C $.^ e.G.= F G.",
"G.F = >.` C C C &.G.G.G.p.C C C C G.G.G.G.` C C C &.G.G.G.p.C C C C p.G.G.G.&.C C C ` G.G.G.G.C C C C p.G.G.G.&.C C C ` >.= F G.",
"G.F = a.` C C C &.G.G.G.G.C C C C G.G.G.G.` C C C &.G.G.G.G.C C C C G.G.G.G.&.C C C ` G.G.G.G.C C C C G.G.G.G.&.C C C X.a.= F G.",
"N.Z = [ &.*.&.&.&.p.&.p.&.&.&.&.&.&.p.&.p.&.&.&.&.&.p.&.p.&.&.&.*.[ &.p.&.p.&.&.&.&.&.p.&.p.&.&.&.&.&.&.p.&.p.&.&.&.[ &.[ = Z N.",
"K c = B l.G.G.G.&.C C C ` G.G.G.G.C C C C p.G.G.G.p.C C C C G.G.G.G.C C C C p.G.G.G.p.C C C C G.G.G.G.` C C C &.G.G.G.N.B = c K ",
"K c = B p.G.G.G.&.C C C ` G.G.G.G.` C C C p.G.G.G.&.C C C ` G.G.G.G.` C C C &.G.G.G.p.C C C ` G.G.G.G.` C C C &.G.G.G.p.B = c K ",
"K c = ` G.G.G.G.&.C C C ` G.G.G.G.C C C C p.G.G.G.p.C C C ` G.G.G.G.` C C C p.G.G.G.p.C C C C G.G.G.G.` C C C &.G.G.G.G.X.= c K ",
"} N X * < < * d e.C ` ` ` G.G.G.p.` ` ` C &.G.p.G.&.C ` ` ` G.G.G.G.` ` ` C &.G.p.G.&.C ` ` ` p.G.G.G.` K ` C e.d * < < * X N $.",
"G.F + d s j 2 6 N.C.G.G.p.C C C C G.G.G.G.` C C C &.G.G.G.G.C C C C G.G.G.G.&.C C C ` G.G.G.G.C C C C p.G.G.G.N.6 3 j s h + F G.",
"G.F = G.1.e.q 8 N.G.G.G.p.C C C C G.G.G.G.` C C C &.G.G.G.G.C C C C G.G.G.G.&.C C C ` G.G.G.G.C C C C p.G.G.G.N.8 q e.1.G.= F G.",
"G.F & G.1.w.q 7 N.G.G.G.p.C C C C G.G.G.G.` C C C &.G.G.G.G.C C C C a.G.G.G.&.C C C ` G.G.G.G.C C C C p.G.G.G.N.8 q w.1.G.& F G.",
"G.F + f a j 3 6 N.G.G.G.p.C C C C G.G.G.G.` C C C &.G.G.G.G.C C C C G.G.G.G.&.C C C ` G.G.G.G.C C C C p.G.G.G.N.6 3 j a k @ F G.",
"} N X ; , < * s N.C ` ` ` G.G.G.p.` ` ` C &.G.p.G.&.C ` ` ` G.G.G.G.` ` ` C &.G.p.G.&.C ` ` ` p.G.G.G.` H ` C e.d * < , ; X N } ",
"K c = ` G.G.G.G.&.C C C ` G.G.G.G.C C C C p.G.G.G.p.C C C ` G.G.G.G.` C C C p.G.G.G.p.C C C C G.G.G.G.` C C C *.G.G.G.G.[ - c K ",
"K c = B p.G.a.G.&.C C C ` G.G.G.G.` C C C p.G.G.G.&.C C C ` G.G.G.G.` C C C &.G.G.G.p.C C C ` G.G.G.G.` C C C &.G.k.G.y.B = c K ",
"K c = B N.G.G.G.&.C C C ` G.G.G.G.C C C C p.G.G.G.p.C C C C G.G.G.G.C C C C p.G.G.G.p.C C C C G.G.G.G.` C C C &.G.G.G.N.B = c K ",
"N.Z = =.&.[ &.&.&.p.&.p.&.*.[ &.&.&.p.&.p.&.&.&.&.&.p.&.p.&.&.&.&.[ &.p.&.p.&.&.&.&.&.p.&.p.&.&.&.&.&.&.p.&.p.&.&.&.[ &.H = Z N.",
"G.F = a.} C C C &.G.G.G.G.C C C C G.G.G.G.` C C C &.G.G.G.G.C C C C G.G.G.G.&.C C C ` G.G.G.G.C C C C G.G.G.G.&.C C C ` a.= F G.",
"G.F = >.` C C C &.G.G.G.p.C C C C G.G.G.G.` C C C &.G.G.G.p.C C C C p.G.G.G.&.C C C ` G.G.G.G.C C C C p.G.G.G.&.C C C ` >.= F G.",
"G.F = G.w.^ $.C &.G.G.G.G.C C C C G.G.G.G.` C C C &.G.G.G.G.C C C C G.G.G.G.&.C C C ` G.G.G.G.C C C C G.G.G.G.&.C $.^ e.G.= F G.",
"N.S @ v z j z D &.p.p.p.&.` ` ` ` &.p.p.p.&.` ` ` &.p.p.p.&.` ` ` ` &.p.p.p.&.` ` ` &.p.p.p.&.` ` ` ` &.p.p.p.&.D z j z v @ S N.",
"K N X = ; > . p N.C C C ` G.G.G.G.C C C C p.G.G.G.p.C C C C G.G.G.G.C C C C p.G.G.G.p.C C C C G.G.G.G.` C C V N.p . 1 ; = X N K ",
"K c & D N.G.q 9 N.C C C ` G.G.G.G.` C C C p.G.G.G.&.C C C ` G.G.G.G.` C C C &.G.G.G.p.C C C ` G.G.G.G.` C C C G.9 q G.N.D = c K ",
"K c = B p.G.q 9 N.N C C ` G.G.G.G.C C C C p.G.G.G.p.C C C ` G.G.G.G.` C C C p.G.G.G.p.C C C C G.G.G.G.` C C N N.e q G.p.B = c K ",
"$.n = B &.G.9 r G.w.e.w.` N.G.G.G.` C ` C &.G.G.G.&.C ` C ` C.G.G.G.` C ` C &.G.G.G.&.C ` C ` G.G.G.G.` 3.e.w.G.r 9 G.&.B = c $.",
"G.F = >.` w.q O 6 5 5 q &.C C C C G.G.G.G.` C C C &.G.G.G.p.C C C C p.G.G.G.&.C C C ` G.G.G.G.C C C C &.q 4 5 6 O q w.` >.= F G.",
"G.F = >.} K x i t p t X S K C C C G.G.G.G.` C C C &.G.G.G.G.C C C C G.G.G.G.&.C C C ` G.G.G.G.C C C K S X t p t y c K ` >.= F G.",
"G.F = >.} C ` 1.N.G.G.; Z K C C C G.G.G.G.` C C C &.G.G.G.G.C C C C G.G.G.G.*.C C C ` G.G.G.G.C C C K S ; G.G.N.( K C X.>.= F G.",
"G.F = k.1.K K C &.G.a.& A ^ K K C G.G.G.G.` C C C &.G.G.G.G.C C C C G.G.G.G.*.C C C ` G.G.G.G.C K K ^ A & a.G.&.C K K 1.G.= F G.",
"$.N % b Z S Z S Z M b % j A Z S %.` ` ` ` &.G.p.G.&.` ` ` ` p.p.p.p.` ` ` ` &.G.p.G.&.` ` ` ` %.S Z A j & b n Z S Z Z Z b @ N $.",
"K N X + = = = = & & &   $ - ; X q w.C C C p.G.G.G.p.C C C G G.G.G.G.G C C C p.G.G.G.p.C C C w.q X ; - &   & & & = = = = + X N K ",
"K c & Z G.G.G.G.p.X.Z = b a.G.t 5 e.C C C p.G.G.G.&.C C C ` G.G.G.G.` C C C &.G.G.G.p.C C C e.4 t G.a.b & Z ` p.G.G.G.N.N = c K ",
"K c & ` w ; < < ; q } & M G.G.p 5 9.N C C p.G.G.G.p.C C C C G.G.G.G.C C C C p.G.G.G.p.V C B w.5 p G.G.N & ` q ; < < ; w X.@ c K ",
"6.Z + p.; q j j r ; p.= Z &.N.t 6 G.N.N.N.&.&.&.&.&.&.&.&.e.N.N.N.N.N.*.&.&.&.&.&.&.&.N.N.N.G.6 t N.&.Z & p.; r j j q ; g.@ Z g.",
"G.F @ G.< g w.w.j < G.= S C 3.y O r e 9 p C C C C &.G.G.G.d 6 8 8 6 d G.G.G.&.C C C D p 9 e r O y ( C S = G.< j w.w.g < G.@ F G.",
"G.F @ G.< g w.w.j < G.& S K K c q 0 q q . z ^ C C &.G.G.G.* 3 q q 3 * G.G.G.&.C C $.z . q q q q c K ` S = G.< j w.w.g < G.@ F G.",
"G.F @ G.* q g g q ; G.= S K C J w.G.G.G.1 j ^ C C [ G.G.G.< j e.w.j < G.G.G.[ C C ^ j 1 G.G.G.w.K C K S = G.; q g g q ; G.@ F G.",
"N.S % N.w ; < < ; w N.& Z 1.$.} ` &.y.N.; z 3.` X.&.g.p.G.< s 1.1.a , G.p.N.&.X.` e.z ; N.p.&.` X.X.1.Z = G.w ; < < ; w N.= S N.",
"K c @ N g.G.G.G.N.` B @ x a.>.>.>.B B D = v G.>.a.[ B B ` * d G.G.h ; [ B B [ a.>.G.v = D B B >.>.>.G.b + N ` g.G.G.G.N.N + c K ",
"K B + @ % @ + @ + @ = X @ = % % % % % = X @ = = = = = = = X + & = @ X - = = = = = = @ X = # = % % = = @ X = % @ @ @ @ & + + B K ",
"C K B c S F F F Z c c N N F F F F c c c N S F F F Z c c c N F F F F B c c c Z F F F S N c c n F F F F N N c c Z F F F S c B J C ",
"C C K K N.G.G.G.g.K K K $.G.G.G.G.$.K K K N.G.G.G.N.K K K $.G.G.G.G.} K K K N.G.G.G.N.K K K $.G.G.G.G.$.K K K p.G.G.G.N.K K C C "
};
